<svg width="71" height="70" viewBox="0 0 71 70" fill="none" xmlns="http://www.w3.org/2000/svg">
<g id="Group">
<path id="Vector" d="M6.0564 17.6924C-0.000343442 26.4054 0.754399 37.7373 5.37715 46.9917C5.49036 47.2121 5.60355 47.4324 5.71676 47.6528C5.79224 47.7913 5.85513 47.9298 5.9306 48.0683C5.97463 48.1501 6.01867 48.2319 6.06269 48.3075C6.14446 48.4523 6.21993 48.5971 6.3017 48.7419C6.44635 48.9937 6.591 49.2518 6.74195 49.4973C6.82371 49.6358 6.90547 49.7743 6.99352 49.9128C7.16334 50.1836 7.33315 50.448 7.50296 50.7187C7.57844 50.832 7.64763 50.9453 7.7231 51.0586C7.9621 51.4175 8.21369 51.7763 8.46527 52.1289C8.47156 52.1352 8.47785 52.1478 8.48414 52.1541C8.52187 52.2107 8.57218 52.2674 8.60991 52.324C8.83005 52.6262 9.05647 52.9284 9.28289 53.2243C9.36465 53.3313 9.45271 53.4383 9.54076 53.5517C9.74831 53.8098 9.95586 54.0679 10.1634 54.3197C10.2452 54.4141 10.3206 54.5086 10.4024 54.603C10.6854 54.943 10.9748 55.2703 11.2704 55.5977C11.2704 55.5977 11.2829 55.6103 11.2892 55.6166C11.3018 55.6292 11.3144 55.6418 11.3207 55.6544C11.61 55.9691 11.9056 56.2839 12.2075 56.5924C12.3018 56.6868 12.3962 56.7813 12.4905 56.8757C12.7232 57.1086 12.9622 57.3416 13.1949 57.5682C13.2893 57.6626 13.3899 57.7508 13.4842 57.8452C13.7987 58.1474 14.1258 58.437 14.4528 58.7266L14.4654 58.7392C14.522 58.7895 14.5786 58.8399 14.6352 58.884C14.9245 59.1358 15.2201 59.3813 15.5157 59.6268C15.6352 59.7213 15.761 59.822 15.8805 59.9164C16.1195 60.1116 16.3648 60.3005 16.6164 60.4893C16.7485 60.5901 16.8743 60.6908 17.0063 60.7852C17.2768 60.9867 17.5535 61.1818 17.8303 61.377C17.9309 61.4525 18.0315 61.5218 18.1322 61.591C18.1573 61.6099 18.1825 61.6288 18.2139 61.6477C18.4781 61.8303 18.7422 62.0065 19.0127 62.1765C19.1259 62.2521 19.2454 62.3339 19.3586 62.4095C19.7737 62.6739 20.1888 62.9257 20.6102 63.1775C20.7234 63.2405 20.8429 63.3097 20.9561 63.3727C21.2643 63.5552 21.5788 63.7315 21.8932 63.9015C22.063 63.9959 22.2392 64.0778 22.4153 64.1659C22.6417 64.2855 22.8618 64.4051 23.0882 64.5185C23.1386 64.5436 23.1952 64.5688 23.2455 64.594C23.3335 64.6381 23.4279 64.6821 23.5222 64.7262C23.8744 64.8962 24.2329 65.0599 24.5851 65.2173C24.6606 65.2487 24.7361 65.2865 24.8115 65.318C25.2204 65.5006 25.6355 65.6705 26.0568 65.8342C26.1575 65.872 26.2581 65.9161 26.3587 65.9538C26.7487 66.1049 27.1387 66.2497 27.5286 66.3882C27.5789 66.4071 27.6292 66.4197 27.6732 66.4386C28.1072 66.5897 28.5412 66.7282 28.9815 66.8667C29.0884 66.8982 29.189 66.9296 29.2959 66.9611C29.7425 67.0933 30.1827 67.257 30.6482 67.3389C59.9318 72.6838 68.4415 49.724 68.4415 49.724C61.2967 59.0414 48.6171 61.4966 36.598 58.7644C36.1451 58.6636 35.6986 58.5188 35.2583 58.3866C35.1451 58.3551 35.0382 58.3174 34.925 58.2859C34.491 58.1537 34.0633 58.0152 33.6356 57.8641C33.579 57.8452 33.5161 57.82 33.4595 57.8011C33.0759 57.6689 32.6985 57.5241 32.3212 57.3793C32.2142 57.3353 32.1073 57.2975 32.0004 57.2534C31.5853 57.0897 31.1765 56.9198 30.7677 56.7435C30.6859 56.7057 30.6041 56.6742 30.5224 56.6365C30.1764 56.4791 29.8305 56.3154 29.4846 56.1517C29.384 56.1013 29.2833 56.0573 29.1827 56.0069C28.9123 55.8747 28.6481 55.7362 28.384 55.5977C28.2078 55.5033 28.0254 55.4151 27.8493 55.3144C27.5223 55.1381 27.2078 54.9619 26.8871 54.773C26.7801 54.71 26.6732 54.6534 26.56 54.5904C26.1386 54.3386 25.7235 54.0868 25.3084 53.8224C25.1952 53.7468 25.082 53.6713 24.9688 53.5957C24.6669 53.4006 24.3713 53.2054 24.0757 53.004C23.9813 52.941 23.8807 52.8655 23.7864 52.8025C23.5033 52.601 23.2203 52.3996 22.9436 52.1918C22.8178 52.0974 22.692 52.003 22.5725 51.9085C22.3146 51.7134 22.063 51.5182 21.8115 51.3168C21.6983 51.2286 21.5851 51.1342 21.4719 51.046C21.1511 50.7816 20.8366 50.5172 20.5284 50.2465C20.497 50.215 20.4592 50.1899 20.4278 50.1584C20.0882 49.8625 19.7611 49.5603 19.4341 49.2518C19.3397 49.1637 19.2454 49.0755 19.151 48.9811C18.912 48.7545 18.673 48.5152 18.434 48.2823C18.3397 48.1879 18.2454 48.0934 18.151 48.0053C17.8554 47.7031 17.5598 47.3883 17.2768 47.0736C17.2642 47.061 17.2453 47.0421 17.2327 47.0295C16.9309 46.6958 16.6353 46.3622 16.346 46.0159C16.2705 45.9215 16.1887 45.8334 16.1132 45.7389C15.8994 45.4808 15.6856 45.2164 15.4717 44.9457C15.3899 44.8512 15.3145 44.7505 15.239 44.6561C14.9874 44.3287 14.7421 44.0014 14.4969 43.6677C7.82374 34.5644 5.42746 21.9985 10.7609 11.6801" fill="black"/>
<path id="Vector_2" d="M24.8556 10.3578C20.4781 16.6659 20.7108 25.1082 24.1322 31.7815C24.7046 32.9021 25.3461 33.9849 26.0694 35.0174C26.7235 35.9554 27.4531 37.076 28.321 37.8315C28.6418 38.1777 28.9688 38.524 29.3022 38.8513C29.3902 38.9395 29.472 39.0213 29.56 39.1095C29.8871 39.4242 30.2204 39.739 30.5664 40.0412C30.5789 40.0538 30.5915 40.0664 30.6041 40.079C30.6041 40.079 30.6104 40.079 30.6104 40.0916C30.9878 40.4252 31.384 40.7463 31.7802 41.0611C31.8683 41.1303 31.9563 41.1996 32.0444 41.2688C32.4469 41.5773 32.8494 41.8795 33.2708 42.1628C33.2834 42.1691 33.296 42.1817 33.3086 42.188C33.491 42.3139 33.6796 42.4335 33.8683 42.5594C33.9564 42.6161 34.0444 42.679 34.1325 42.7357C34.4344 42.9245 34.7363 43.1134 35.0445 43.296C35.0885 43.3212 35.1325 43.3463 35.1702 43.3715C35.4344 43.5226 35.7049 43.6737 35.9753 43.8185C36.0696 43.8689 36.164 43.9192 36.2583 43.9696C36.447 44.0703 36.6294 44.1648 36.8181 44.2592C36.8432 44.2718 36.8747 44.2844 36.8998 44.297C37.2835 44.4921 37.6797 44.6684 38.076 44.8447C38.1577 44.8825 38.2458 44.9139 38.3338 44.9517C38.6546 45.0902 38.9691 45.2161 39.2961 45.342C39.4345 45.3924 39.5729 45.4428 39.7049 45.4931C39.9943 45.6001 40.2899 45.7009 40.5855 45.8016C40.7175 45.8457 40.8496 45.8897 40.9817 45.9275C41.4031 46.0597 41.8182 46.2234 42.2585 46.2989C64.869 50.0511 70.0893 32.6251 70.0893 32.6251C65.3848 39.4053 56.2714 42.6475 46.5479 40.1167C46.1202 40.0034 45.6925 39.8775 45.2711 39.7453C45.139 39.7075 45.0132 39.6635 44.8874 39.6194C44.5855 39.5187 44.29 39.4179 43.9943 39.3109C43.856 39.2606 43.7239 39.2102 43.5918 39.1598C43.271 39.0339 42.944 38.908 42.6295 38.7695C42.5415 38.7317 42.4534 38.7003 42.3717 38.6625C41.9754 38.4925 41.5792 38.3036 41.1893 38.1148C40.988 38.014 40.793 37.9133 40.598 37.8126C40.4848 37.7559 40.3716 37.693 40.2584 37.6363C40.0068 37.4978 39.7553 37.3593 39.51 37.2145C39.4534 37.183 39.3905 37.1516 39.3339 37.1138C39.0257 36.9375 38.7238 36.7486 38.4282 36.5598C38.3338 36.5031 38.2458 36.4339 38.1577 36.3772C37.9628 36.2513 37.7678 36.1191 37.5728 35.9869C37.1577 35.6973 36.7489 35.3951 36.3527 35.0929C36.2583 35.0237 36.1703 34.9481 36.0759 34.8789C31.818 31.5171 28.4468 26.915 26.843 21.7086C25.1637 16.3008 25.5222 10.2319 28.4343 5.30881" fill="black"/>
<path id="Vector_3" d="M40.6674 4.87463C38.0887 8.67713 37.8309 13.3988 39.6234 17.5979C41.5102 22.0551 45.3845 25.5554 49.9003 27.2111C50.089 27.2804 50.2714 27.3433 50.4601 27.4063C50.5418 27.4315 50.6236 27.4567 50.7054 27.4819C50.9695 27.5637 51.2337 27.6644 51.5104 27.7148C63.995 30.1323 67.3787 21.2996 68.2844 20.0028C65.3158 24.2774 60.3345 25.3036 54.2149 23.8179C53.7306 23.6982 53.2023 23.5283 52.7369 23.3583C52.1394 23.1442 51.5544 22.905 50.9821 22.628C49.894 22.1055 48.8626 21.4759 47.9003 20.7456C42.4285 16.5906 39.0258 8.65824 42.5983 2.19904" fill="black"/>
<g id="Group_2">
<path id="Vector_4" d="M5.89917 17.6924C-0.15757 26.4054 0.597173 37.7373 5.21992 46.9917C5.33313 47.2121 5.44633 47.4324 5.55954 47.6528C5.63501 47.7913 5.6979 47.9298 5.77338 48.0683C5.8174 48.1501 5.86144 48.2319 5.90547 48.3075C5.98723 48.4523 6.06271 48.5971 6.14447 48.7419C6.28913 48.9937 6.43377 49.2518 6.58472 49.4973C6.66648 49.6358 6.74824 49.7743 6.83629 49.9128C7.00611 50.1836 7.17592 50.448 7.34574 50.7187C7.42121 50.832 7.4904 50.9453 7.56587 51.0586C7.80487 51.4175 8.05646 51.7763 8.30804 52.1289C8.31433 52.1352 8.32062 52.1478 8.32691 52.1541C8.36465 52.2107 8.41495 52.2674 8.45269 52.324C8.67282 52.6262 8.89924 52.9284 9.12566 53.2243C9.20743 53.3313 9.29548 53.4383 9.38353 53.5517C9.59109 53.8098 9.79863 54.0679 10.0062 54.3197C10.0879 54.4141 10.1634 54.5086 10.2452 54.603C10.5282 54.943 10.8175 55.2703 11.1131 55.5977C11.1131 55.5977 11.1257 55.6103 11.132 55.6166C11.1446 55.6292 11.1572 55.6418 11.1634 55.6544C11.4528 55.9691 11.7484 56.2839 12.0503 56.5924C12.1446 56.6868 12.2389 56.7813 12.3333 56.8757C12.566 57.1086 12.805 57.3416 13.0377 57.5682C13.132 57.6626 13.2327 57.7508 13.327 57.8452C13.6415 58.1474 13.9685 58.437 14.2956 58.7266L14.3082 58.7392C14.3648 58.7895 14.4214 58.8399 14.478 58.884C14.7673 59.1358 15.0629 59.3813 15.3585 59.6268C15.478 59.7213 15.6038 59.822 15.7233 59.9164C15.9623 60.1116 16.2076 60.3005 16.4592 60.4893C16.5912 60.5901 16.717 60.6908 16.8491 60.7852C17.1196 60.9867 17.3963 61.1818 17.673 61.377C17.7737 61.4525 17.8743 61.5218 17.9749 61.591C18.0001 61.6099 18.0252 61.6288 18.0567 61.6477C18.3209 61.8303 18.585 62.0065 18.8554 62.1765C18.9687 62.2521 19.0881 62.3339 19.2014 62.4095C19.6165 62.6739 20.0316 62.9257 20.453 63.1775C20.5662 63.2405 20.6857 63.3097 20.7989 63.3727C21.1071 63.5552 21.4215 63.7315 21.736 63.9015C21.9058 63.9959 22.0819 64.0778 22.258 64.1659C22.4845 64.2855 22.7046 64.4051 22.931 64.5185C22.9813 64.5436 23.0379 64.5688 23.0883 64.594C23.1763 64.6381 23.2706 64.6821 23.365 64.7262C23.7172 64.8962 24.0757 65.0599 24.4279 65.2173C24.5034 65.2487 24.5788 65.2865 24.6543 65.318C25.0631 65.5006 25.4782 65.6705 25.8996 65.8342C26.0003 65.872 26.1009 65.9161 26.2015 65.9538C26.5915 66.1049 26.9814 66.2497 27.3714 66.3882C27.4217 66.4071 27.472 66.4197 27.516 66.4386C27.95 66.5897 28.384 66.7282 28.8242 66.8667C28.9312 66.8982 29.0318 66.9296 29.1387 66.9611C29.5853 67.0933 30.0255 67.257 30.4909 67.3389C59.7746 72.6838 68.2842 49.724 68.2842 49.724C61.1394 59.0414 48.4599 61.4966 36.4408 58.7644C35.9879 58.6636 35.5414 58.5188 35.1011 58.3866C34.9879 58.3551 34.881 58.3174 34.7678 58.2859C34.3338 58.1537 33.9061 58.0152 33.4784 57.8641C33.4218 57.8452 33.3589 57.82 33.3023 57.8011C32.9187 57.6689 32.5413 57.5241 32.1639 57.3793C32.057 57.3353 31.9501 57.2975 31.8432 57.2534C31.4281 57.0897 31.0192 56.9198 30.6104 56.7435C30.5287 56.7057 30.4469 56.6742 30.3651 56.6365C30.0192 56.4791 29.6733 56.3154 29.3274 56.1517C29.2267 56.1013 29.1261 56.0573 29.0255 56.0069C28.755 55.8747 28.4909 55.7362 28.2267 55.5977C28.0506 55.5033 27.8682 55.4151 27.6921 55.3144C27.3651 55.1381 27.0506 54.9619 26.7298 54.773C26.6229 54.71 26.516 54.6534 26.4028 54.5904C25.9814 54.3386 25.5663 54.0868 25.1512 53.8224C25.038 53.7468 24.9248 53.6713 24.8116 53.5957C24.5097 53.4006 24.2141 53.2054 23.9184 53.004C23.8241 52.941 23.7235 52.8655 23.6291 52.8025C23.3461 52.601 23.0631 52.3996 22.7864 52.1918C22.6606 52.0974 22.5348 52.003 22.4153 51.9085C22.1574 51.7134 21.9058 51.5182 21.6542 51.3168C21.541 51.2286 21.4278 51.1342 21.3146 51.046C20.9939 50.7816 20.6794 50.5172 20.3712 50.2465C20.3398 50.215 20.302 50.1899 20.2706 50.1584C19.9309 49.8625 19.6039 49.5603 19.2768 49.2518C19.1825 49.1637 19.0882 49.0755 18.9938 48.9811C18.7548 48.7545 18.5158 48.5152 18.2768 48.2823C18.1825 48.1879 18.0881 48.0934 17.9938 48.0053C17.6982 47.7031 17.4026 47.3883 17.1196 47.0736C17.107 47.061 17.0881 47.0421 17.0755 47.0295C16.7736 46.6958 16.478 46.3622 16.1887 46.0159C16.1133 45.9215 16.0315 45.8334 15.956 45.7389C15.7422 45.4808 15.5283 45.2164 15.3145 44.9457C15.2327 44.8512 15.1572 44.7505 15.0818 44.6561C14.8302 44.3287 14.5849 44.0014 14.3396 43.6677C7.66652 34.5644 5.27023 21.9985 10.6037 11.6801" fill="black"/>
<path id="Vector_5" d="M24.6983 10.3578C20.3209 16.6659 20.5536 25.1082 23.975 31.7815C24.5474 32.9021 25.1889 33.9849 25.9122 35.0174C26.5663 35.9554 27.2959 37.076 28.1638 37.8315C28.4846 38.1777 28.8116 38.524 29.145 38.8513C29.233 38.9395 29.3148 39.0213 29.4028 39.1095C29.7299 39.4242 30.0632 39.739 30.4091 40.0412C30.4217 40.0538 30.4343 40.0664 30.4469 40.079C30.4469 40.079 30.4532 40.079 30.4532 40.0916C30.8305 40.4252 31.2268 40.7463 31.623 41.0611C31.7111 41.1303 31.7991 41.1996 31.8872 41.2688C32.2897 41.5773 32.6922 41.8795 33.1136 42.1628C33.1262 42.1691 33.1388 42.1817 33.1513 42.188C33.3337 42.3139 33.5224 42.4335 33.7111 42.5594C33.7992 42.6161 33.8872 42.679 33.9753 42.7357C34.2772 42.9245 34.579 43.1134 34.8872 43.296C34.9313 43.3212 34.9753 43.3463 35.013 43.3715C35.2772 43.5226 35.5476 43.6737 35.8181 43.8185C35.9124 43.8689 36.0067 43.9192 36.1011 43.9696C36.2898 44.0703 36.4722 44.1648 36.6609 44.2592C36.686 44.2718 36.7175 44.2844 36.7426 44.297C37.1263 44.4921 37.5225 44.6684 37.9187 44.8447C38.0005 44.8825 38.0886 44.9139 38.1766 44.9517C38.4974 45.0902 38.8118 45.2161 39.1389 45.342C39.2773 45.3924 39.4156 45.4428 39.5477 45.4931C39.837 45.6001 40.1326 45.7009 40.4282 45.8016C40.5603 45.8457 40.6924 45.8897 40.8245 45.9275C41.2459 46.0597 41.661 46.2234 42.1012 46.2989C64.7118 50.0511 69.932 32.6251 69.932 32.6251C65.2275 39.4053 56.1141 42.6475 46.3906 40.1167C45.963 40.0034 45.5353 39.8775 45.1139 39.7453C44.9818 39.7075 44.856 39.6635 44.7302 39.6194C44.4283 39.5187 44.1327 39.4179 43.8371 39.3109C43.6988 39.2606 43.5667 39.2102 43.4346 39.1598C43.1138 39.0339 42.7868 38.908 42.4723 38.7695C42.3843 38.7317 42.2962 38.7003 42.2144 38.6625C41.8182 38.4925 41.422 38.3036 41.032 38.1148C40.8308 38.014 40.6358 37.9133 40.4408 37.8126C40.3276 37.7559 40.2144 37.693 40.1012 37.6363C39.8496 37.4978 39.598 37.3593 39.3527 37.2145C39.2961 37.183 39.2332 37.1516 39.1766 37.1138C38.8685 36.9375 38.5666 36.7486 38.271 36.5598C38.1766 36.5031 38.0886 36.4339 38.0005 36.3772C37.8055 36.2513 37.6106 36.1191 37.4156 35.9869C37.0005 35.6973 36.5917 35.3951 36.1954 35.0929C36.1011 35.0237 36.013 34.9481 35.9187 34.8789C31.6607 31.5171 28.2896 26.915 26.6858 21.7086C25.0065 16.3008 25.365 10.2319 28.277 5.30881" fill="black"/>
<path id="Vector_6" d="M40.5092 4.87463C37.9305 8.67713 37.6727 13.3988 39.4652 17.5979C41.352 22.0551 45.2263 25.5554 49.7421 27.2111C49.9308 27.2804 50.1132 27.3433 50.3019 27.4063C50.3836 27.4315 50.4654 27.4567 50.5472 27.4819C50.8113 27.5637 51.0755 27.6644 51.3522 27.7148C63.8368 30.1323 67.2205 21.2996 68.1262 20.0028C65.1576 24.2774 60.1763 25.3036 54.0567 23.8179C53.5724 23.6982 53.0441 23.5283 52.5787 23.3583C51.9812 23.1442 51.3962 22.905 50.8239 22.628C49.7358 22.1055 48.7044 21.4759 47.7421 20.7456C42.2703 16.5906 38.8676 8.65824 42.44 2.19904" fill="black"/>
<g id="Group_3">
<path id="Vector_7" d="M61.0094 0.147217H9.74098C4.65351 0.147217 0.529297 4.27541 0.529297 9.36779V60.6857C0.529297 65.7781 4.65351 69.9063 9.74098 69.9063H61.0094C66.0969 69.9063 70.2211 65.7781 70.2211 60.6857V9.36779C70.2211 4.27541 66.0969 0.147217 61.0094 0.147217Z" fill="black"/>
<g id="Group_4">
<path id="Vector_8" d="M14.5742 18.5435C16.7718 18.1497 19.8123 17.8515 23.8084 17.8515C28.2428 17.8515 31.5194 18.6616 33.7563 20.535C35.8583 22.2396 37.1173 25.0299 37.1173 28.1972C37.1173 31.6008 36.0382 34.3405 34.116 36.2083C31.6712 38.5879 27.9449 39.6793 24.0163 39.6793C23.1789 39.6793 22.4202 39.6343 21.8076 39.5499V51.7465H14.5798V18.5435H14.5742ZM21.8019 33.823C22.3471 33.9411 22.9991 33.9861 23.8983 33.9861C27.7145 33.9861 29.8952 31.8483 29.8952 28.5179C29.8952 25.4687 28.0573 23.4829 24.4603 23.4829C23.2239 23.4829 22.3078 23.601 21.8019 23.736V33.8286V33.823Z" fill="white" fill-opacity="0.66"/>
<path id="Vector_9" d="M40.3037 45.344C41.557 46.1147 44.1423 47.0036 46.1881 47.0036C48.2339 47.0036 49.2737 46.2385 49.2737 44.9389C49.2737 43.6394 48.5093 43.0093 45.9127 41.9686C41.1636 40.1233 39.5337 37.423 39.5506 34.7451C39.5506 30.2108 43.2038 26.796 48.914 26.796C51.5218 26.796 53.7755 27.4148 55.2143 28.1349L53.9442 33.2318C52.8932 32.6636 51.0609 31.9716 49.2175 31.9716C47.374 31.9716 46.4467 32.7817 46.4467 33.9744C46.4467 35.167 47.2953 35.7409 50.0774 36.8716C54.3994 38.5875 56.1586 41.0234 56.1754 44.3426C56.1754 49.0401 52.6121 52.2018 46.1938 52.2018C43.3555 52.2018 40.6353 51.5323 38.9941 50.5759L40.3037 45.344Z" fill="white" fill-opacity="0.66"/>
</g>
</g>
</g>
</g>
</svg>
