<svg width="70" height="70" viewBox="0 0 70 70" fill="none" xmlns="http://www.w3.org/2000/svg">
<path fill-rule="evenodd" clip-rule="evenodd" d="M60.4801 0H9.21168C4.12421 0 0 4.12819 0 9.22057V60.5385C0 65.6309 4.12421 69.7591 9.21168 69.7591H60.4801C65.5676 69.7591 69.6918 65.6309 69.6918 60.5385V9.22057C69.6918 4.12819 65.5676 0 60.4801 0ZM14.0449 18.3962C16.2425 18.0024 19.2831 17.7043 23.2791 17.7043C27.7135 17.7043 30.9901 18.5144 33.227 20.3878C35.329 22.0924 36.588 24.8827 36.588 28.05C36.588 31.4536 35.5089 34.1933 33.5867 36.061C31.1419 38.4407 27.4156 39.5321 23.487 39.5321C22.6496 39.5321 21.8909 39.4871 21.2783 39.4027V51.5993H14.0505V18.3962H14.0449ZM21.2726 33.6757C21.8178 33.7939 22.4698 33.8389 23.369 33.8389C27.1852 33.8389 29.3659 31.7011 29.3659 28.3707C29.3659 25.3215 27.528 23.3356 23.931 23.3356C22.6946 23.3356 21.7785 23.4538 21.2726 23.5888V33.6757ZM45.6592 46.8564C43.6134 46.8564 41.0281 45.9675 39.7747 45.1968L38.4652 50.4287C40.1063 51.3851 42.8266 52.0545 45.6648 52.0545C52.0832 52.0545 55.6465 48.8929 55.6465 44.1954C55.6296 40.8762 53.8705 38.4403 49.5484 36.7244C46.7664 35.5937 45.9177 35.0198 45.9177 33.8272C45.9177 32.6345 46.8451 31.8244 48.6885 31.8244C50.532 31.8244 52.3642 32.5164 53.4152 33.0846L54.6854 27.9877C53.2466 27.2676 50.9929 26.6487 48.385 26.6487C42.6748 26.6487 39.0216 30.0636 39.0216 34.5979C39.0047 37.2757 40.6346 39.9761 45.3838 41.8213C47.9804 42.8621 48.7447 43.4922 48.7447 44.7917C48.7447 46.0913 47.705 46.8564 45.6592 46.8564Z" fill="black"/>
</svg>
