<svg width="69" height="66" viewBox="0 0 69 66" fill="none" xmlns="http://www.w3.org/2000/svg">
<path d="M4.77167 15.4934C-1.27341 24.2064 -0.520125 35.5384 4.09372 44.7928C4.20672 45.0131 4.31969 45.2335 4.43269 45.4538C4.50801 45.5923 4.57079 45.7308 4.64611 45.8693C4.69005 45.9512 4.73401 46.033 4.77795 46.1086C4.85956 46.2533 4.93489 46.3981 5.01649 46.5429C5.16087 46.7948 5.30524 47.0529 5.4559 47.2984C5.5375 47.4369 5.6191 47.5754 5.70699 47.7139C5.87647 47.9846 6.04596 48.249 6.21545 48.5197C6.29078 48.633 6.35983 48.7464 6.43516 48.8597C6.6737 49.2185 6.92481 49.5774 7.1759 49.9299C7.18218 49.9362 7.18846 49.9488 7.19473 49.9551C7.2324 50.0118 7.2826 50.0684 7.32027 50.1251C7.53998 50.4273 7.76596 50.7295 7.99195 51.0254C8.07355 51.1324 8.16144 51.2394 8.24932 51.3527C8.45647 51.6108 8.66362 51.8689 8.87077 52.1208C8.95238 52.2152 9.02771 52.3096 9.10931 52.4041C9.3918 52.744 9.68056 53.0714 9.97559 53.3988C9.97559 53.3988 9.98815 53.4114 9.99442 53.4176C10.007 53.4302 10.0195 53.4428 10.0258 53.4554C10.3146 53.7702 10.6096 54.085 10.9109 54.3935C11.0051 54.4879 11.0992 54.5823 11.1934 54.6768C11.4257 54.9097 11.6642 55.1426 11.8965 55.3693C11.9906 55.4637 12.0911 55.5518 12.1852 55.6463C12.4991 55.9484 12.8255 56.238 13.1519 56.5276L13.1645 56.5402C13.221 56.5906 13.2775 56.641 13.334 56.685C13.6227 56.9368 13.9178 57.1824 14.2128 57.4279C14.3321 57.5223 14.4576 57.6231 14.5769 57.7175C14.8154 57.9126 15.0602 58.1015 15.3113 58.2904C15.4432 58.3911 15.5687 58.4918 15.7005 58.5863C15.9705 58.7877 16.2467 58.9829 16.5229 59.1781C16.6233 59.2536 16.7237 59.3228 16.8242 59.3921C16.8493 59.411 16.8744 59.4299 16.9058 59.4488C17.1694 59.6313 17.4331 59.8076 17.703 59.9776C17.816 60.0531 17.9353 60.135 18.0482 60.2105C18.4626 60.4749 18.8769 60.7267 19.2975 60.9786C19.4104 61.0415 19.5297 61.1108 19.6427 61.1737C19.9503 61.3563 20.2641 61.5326 20.578 61.7026C20.7475 61.797 20.9233 61.8788 21.099 61.967C21.325 62.0866 21.5447 62.2062 21.7707 62.3195C21.8209 62.3447 21.8774 62.3699 21.9277 62.3951C22.0155 62.4391 22.1097 62.4832 22.2038 62.5273C22.5554 62.6972 22.9132 62.8609 23.2647 63.0183C23.34 63.0498 23.4154 63.0876 23.4907 63.119C23.8987 63.3016 24.313 63.4716 24.7336 63.6353C24.8341 63.6731 24.9345 63.7171 25.0349 63.7549C25.4241 63.906 25.8133 64.0508 26.2025 64.1893C26.2528 64.2082 26.303 64.2208 26.3469 64.2396C26.78 64.3907 27.2132 64.5292 27.6526 64.6677C27.7593 64.6992 27.8597 64.7307 27.9665 64.7622C28.4122 64.8944 28.8516 65.0581 29.3161 65.1399C58.5434 70.4848 67.0366 47.525 67.0366 47.525C59.9056 56.8424 47.2505 59.2977 35.2545 56.5654C34.8025 56.4647 34.3568 56.3199 33.9174 56.1877C33.8044 56.1562 33.6977 56.1184 33.5847 56.0869C33.1515 55.9547 32.7247 55.8162 32.2978 55.6651C32.2413 55.6463 32.1786 55.6211 32.1221 55.6022C31.7391 55.47 31.3625 55.3252 30.9859 55.1804C30.8791 55.1363 30.7724 55.0986 30.6657 55.0545C30.2514 54.8908 29.8434 54.7208 29.4354 54.5445C29.3538 54.5068 29.2721 54.4753 29.1905 54.4375C28.8453 54.2801 28.5 54.1165 28.1548 53.9528C28.0543 53.9024 27.9539 53.8583 27.8535 53.808C27.5835 53.6758 27.3199 53.5373 27.0562 53.3988C26.8805 53.3043 26.6984 53.2162 26.5227 53.1155C26.1962 52.9392 25.8824 52.7629 25.5622 52.574C25.4555 52.5111 25.3488 52.4544 25.2358 52.3915C24.8152 52.1397 24.4009 51.8878 23.9866 51.6234C23.8736 51.5479 23.7606 51.4723 23.6476 51.3968C23.3463 51.2016 23.0513 51.0065 22.7563 50.805C22.6621 50.7421 22.5617 50.6665 22.4675 50.6036C22.185 50.4021 21.9025 50.2006 21.6263 49.9929C21.5008 49.8985 21.3752 49.804 21.256 49.7096C20.9986 49.5144 20.7475 49.3193 20.4964 49.1178C20.3834 49.0297 20.2704 48.9352 20.1574 48.8471C19.8373 48.5827 19.5234 48.3183 19.2158 48.0476C19.1845 48.0161 19.1468 47.9909 19.1154 47.9594C18.7764 47.6635 18.45 47.3614 18.1236 47.0529C18.0294 46.9647 17.9353 46.8766 17.8411 46.7822C17.6026 46.5555 17.364 46.3163 17.1255 46.0834C17.0313 45.9889 16.9372 45.8945 16.843 45.8064C16.548 45.5042 16.2529 45.1894 15.9704 44.8746C15.9579 44.862 15.9391 44.8431 15.9265 44.8306C15.6252 44.4969 15.3302 44.1632 15.0414 43.817C14.9661 43.7225 14.8845 43.6344 14.8091 43.54C14.5957 43.2819 14.3823 43.0174 14.1689 42.7467C14.0872 42.6523 14.0119 42.5516 13.9366 42.4571C13.6855 42.1298 13.4407 41.8024 13.1959 41.4687C6.53561 32.3654 4.14394 19.7996 9.46713 9.4812" fill="black"/>
<path d="M23.5348 8.15881C19.1657 14.4669 19.398 22.9092 22.8129 29.5825C23.3841 30.7031 24.0244 31.7859 24.7463 32.8184C25.3991 33.7564 26.1273 34.877 26.9936 35.6325C27.3137 35.9787 27.6401 36.325 27.9728 36.6523C28.0607 36.7405 28.1423 36.8223 28.2302 36.9105C28.5566 37.2252 28.8893 37.54 29.2346 37.8422C29.2471 37.8548 29.2597 37.8674 29.2722 37.88C29.2722 37.88 29.2785 37.88 29.2785 37.8926C29.6552 38.2262 30.0506 38.5473 30.4461 38.8621C30.534 38.9313 30.6219 39.0006 30.7098 39.0698C31.1115 39.3783 31.5133 39.6805 31.9338 39.9638C31.9464 39.9701 31.959 39.9827 31.9715 39.989C32.1536 40.1149 32.3419 40.2345 32.5302 40.3604C32.6181 40.4171 32.706 40.48 32.7938 40.5367C33.0952 40.7255 33.3965 40.9144 33.7041 41.097C33.748 41.1222 33.7919 41.1473 33.8296 41.1725C34.0933 41.3236 34.3632 41.4747 34.6331 41.6195C34.7273 41.6699 34.8214 41.7202 34.9156 41.7706C35.1039 41.8713 35.2859 41.9658 35.4743 42.0602C35.4994 42.0728 35.5308 42.0854 35.5559 42.098C35.9388 42.2931 36.3343 42.4694 36.7297 42.6457C36.8113 42.6835 36.8992 42.7149 36.9871 42.7527C37.3073 42.8912 37.6211 43.0171 37.9475 43.143C38.0856 43.1934 38.2237 43.2438 38.3556 43.2941C38.6443 43.4011 38.9394 43.5019 39.2344 43.6026C39.3662 43.6467 39.498 43.6907 39.6299 43.7285C40.0504 43.8607 40.4648 44.0244 40.9042 44.0999C63.4712 47.8521 68.6814 30.4261 68.6814 30.4261C63.986 37.2063 54.8901 40.4485 45.1853 37.9177C44.7585 37.8044 44.3316 37.6785 43.911 37.5463C43.7792 37.5085 43.6536 37.4645 43.5281 37.4204C43.2268 37.3197 42.9318 37.2189 42.6367 37.1119C42.4986 37.0616 42.3668 37.0112 42.235 36.9608C41.9148 36.8349 41.5884 36.709 41.2745 36.5705C41.1867 36.5327 41.0988 36.5012 41.0172 36.4635C40.6217 36.2935 40.2262 36.1046 39.837 35.9158C39.6362 35.815 39.4416 35.7143 39.247 35.6136C39.134 35.5569 39.021 35.494 38.908 35.4373C38.6569 35.2988 38.4058 35.1603 38.161 35.0155C38.1045 34.984 38.0417 34.9525 37.9852 34.9148C37.6776 34.7385 37.3763 34.5496 37.0813 34.3608C36.9871 34.3041 36.8992 34.2349 36.8113 34.1782C36.6167 34.0523 36.4222 33.9201 36.2276 33.7879C35.8133 33.4983 35.4052 33.1961 35.0097 32.8939C34.9156 32.8247 34.8277 32.7491 34.7335 32.6799C30.4838 29.3181 27.1191 24.716 25.5184 19.5096C23.8423 14.1018 24.2002 8.0329 27.1066 3.1098" fill="black"/>
<path d="M39.3155 2.67547C36.7418 6.47797 36.4844 11.1996 38.2735 15.3987C40.1567 19.856 44.0235 23.3563 48.5307 25.012C48.719 25.0812 48.901 25.1442 49.0893 25.2071C49.1709 25.2323 49.2525 25.2575 49.3342 25.2827C49.5978 25.3645 49.8615 25.4653 50.1377 25.5156C62.5982 27.9331 65.9754 19.1005 66.8793 17.8036C63.9164 22.0783 58.9448 23.1044 52.8369 21.6187C52.3536 21.4991 51.8263 21.3291 51.3618 21.1591C50.7654 20.9451 50.1816 20.7058 49.6104 20.4288C48.5244 19.9063 47.4949 19.2768 46.5345 18.5465C41.0732 14.3914 37.6771 6.45908 41.2426 -0.00012207" fill="black"/>
</svg>
