<svg width="70" height="70" viewBox="0 0 70 70" fill="none" xmlns="http://www.w3.org/2000/svg">
<path fill-rule="evenodd" clip-rule="evenodd" d="M60.4052 0H9.28657C4.15774 0 0 4.16175 0 9.29553V60.4635C0 65.5973 4.15774 69.759 9.28657 69.759H60.4052C65.534 69.759 69.6918 65.5973 69.6918 60.4635V9.29553C69.6918 4.16175 65.534 0 60.4052 0ZM23.8761 43.7555L21.502 52.3988H13.6376L23.8988 18.7387H33.8483L44.319 52.3988H36.126L33.5423 43.7555H23.8761ZM32.4204 38.0841L30.324 30.9323C29.9429 29.6197 29.5545 28.0753 29.1862 26.6112L29.1861 26.611L29.1861 26.611C28.9959 25.8548 28.8111 25.1201 28.6355 24.4498H28.5279C28.3294 25.247 28.129 26.1379 27.925 27.0453L27.9249 27.0453C27.6223 28.391 27.3116 29.7727 26.9867 30.938L24.9753 38.0841H32.4148H32.4204ZM51.9737 24.9602C54.5008 24.9602 56.0646 23.2814 56.0533 21.166C56.0249 18.9881 54.4781 17.3604 52.0417 17.3604C49.6054 17.3604 48.0132 18.9938 48.0245 21.166C48.0132 23.2814 49.4467 24.9602 51.9737 24.9602ZM48.2342 27.9547V52.3987H55.838V27.9547H48.2342Z" fill="black"/>
</svg>
