<svg width="52" height="78" viewBox="0 0 52 78" fill="none" xmlns="http://www.w3.org/2000/svg">
<path d="M13 0.125H25.875V25.875H13C5.88933 25.875 0.125 20.1107 0.125 13C0.125 5.88933 5.88933 0.125 13 0.125Z" fill="black" stroke="#7802ED" stroke-width="0.25"/>
<path d="M13 26.125H25.875V51.875H13C5.88933 51.875 0.125 46.1107 0.125 39C0.125 31.8893 5.88933 26.125 13 26.125Z" fill="#787878" fill-opacity="0.53" stroke="#7802ED" stroke-width="0.25"/>
<path d="M13 52.125H25.875V65C25.875 72.1107 20.1107 77.875 13 77.875C5.88933 77.875 0.125 72.1107 0.125 65C0.125 57.8893 5.88933 52.125 13 52.125Z" fill="black" stroke="#7802ED" stroke-width="0.25"/>
<path d="M39 51.875C31.8893 51.875 26.125 46.1107 26.125 39C26.125 31.8893 31.8893 26.125 39 26.125C46.1107 26.125 51.875 31.8893 51.875 39C51.875 46.1107 46.1107 51.875 39 51.875Z" fill="black" stroke="#7802ED" stroke-width="0.25"/>
<path d="M26.125 0.125H39C46.1107 0.125 51.875 5.88933 51.875 13C51.875 20.1107 46.1107 25.875 39 25.875H26.125V0.125Z" fill="#787878" fill-opacity="0.53" stroke="#7802ED" stroke-width="0.25"/>
</svg>
