<svg width="63" height="73" viewBox="0 0 63 73" fill="none" xmlns="http://www.w3.org/2000/svg">
<path d="M56.6827 64.9163L31.3344 71.8908L5.98611 64.9163L0.135742 0.121094H62.533L56.6827 64.9163Z" fill="black"/>
<path d="M31.335 4.60803V66.8407L51.9177 60.6987L57.3817 4.60803H31.335Z" fill="black"/>
<path d="M49.9751 13.5767H12.6338L13.5056 22.5504L14.8877 38.2494H39.1462L38.3585 47.1832L31.3341 49.4366L24.3395 47.1832L23.859 42.7313H15.2939L16.3144 53.9235L31.3341 58.4103L46.3291 53.9135L48.5385 29.2757H22.9772L22.4224 22.5504H49.1626L49.9751 13.5767Z" fill="white" fill-opacity="0.66"/>
<path d="M0.135742 0.121094L5.81575 65.451L31.3318 72.7099L56.8375 65.4562L62.533 0.121094H0.135742Z" fill="black"/>
<path d="M50.3803 21.4825L49.6606 29.6928L47.4963 54.2972L31.3313 58.8439L31.3158 58.8492L15.1611 54.2972L14.0324 41.43H21.9492L22.5395 48.1001L31.321 50.5128H31.3261L40.1232 48.0949L41.3244 36.9779L13.6544 37.0568L12.8726 29.451L41.9872 29.0988L42.5774 20.9621L12.0907 21.0515L11.5781 13.4772H51.0845L50.3803 21.4825Z" fill="white" fill-opacity="0.66"/>
</svg>
