<svg width="52" height="78" viewBox="0 0 52 78" fill="none" xmlns="http://www.w3.org/2000/svg">
<path d="M0 13C0 5.8203 5.8203 0 13 0H26V26H13C5.8203 26 0 20.1797 0 13V13Z" fill="black"/>
<path d="M0 39C0 31.8203 5.8203 26 13 26H26V52H13C5.8203 52 0 46.1797 0 39V39Z" fill="#787878" fill-opacity="0.53"/>
<path d="M0 65C0 57.8203 5.8203 52 13 52H26V65C26 72.1797 20.1797 78 13 78V78C5.8203 78 0 72.1797 0 65V65Z" fill="black"/>
<path d="M26 39C26 31.8203 31.8203 26 39 26V26C46.1797 26 52 31.8203 52 39V39C52 46.1797 46.1797 52 39 52V52C31.8203 52 26 46.1797 26 39V39Z" fill="black"/>
<path d="M26 0H39C46.1797 0 52 5.8203 52 13V13C52 20.1797 46.1797 26 39 26H26V0Z" fill="#787878" fill-opacity="0.53"/>
</svg>
