<svg width="71" height="70" viewBox="0 0 71 70" fill="none" xmlns="http://www.w3.org/2000/svg">
<path d="M6.25171 17.6921C0.194969 26.4051 0.949712 37.7371 5.57246 46.9915C5.68567 47.2118 5.79887 47.4322 5.91208 47.6525C5.98755 47.791 6.05044 47.9295 6.12591 48.068C6.16994 48.1499 6.21398 48.2317 6.25801 48.3073C6.33977 48.452 6.41525 48.5968 6.49701 48.7416C6.64167 48.9935 6.78631 49.2516 6.93726 49.4971C7.01902 49.6356 7.10078 49.7741 7.18883 49.9126C7.35865 50.1833 7.52846 50.4477 7.69828 50.7184C7.77375 50.8317 7.84294 50.9451 7.91841 51.0584C8.15741 51.4172 8.409 51.7761 8.66058 52.1286C8.66687 52.1349 8.67316 52.1475 8.67945 52.1538C8.71719 52.2105 8.76749 52.2671 8.80523 52.3238C9.02536 52.626 9.25178 52.9282 9.4782 53.2241C9.55997 53.3311 9.64802 53.4381 9.73607 53.5514C9.94362 53.8095 10.1512 54.0676 10.3587 54.3195C10.4405 54.4139 10.516 54.5083 10.5977 54.6028C10.8807 54.9427 11.1701 55.2701 11.4657 55.5975C11.4657 55.5975 11.4783 55.6101 11.4845 55.6163C11.4971 55.6289 11.5097 55.6415 11.516 55.6541C11.8053 55.9689 12.1009 56.2837 12.4028 56.5922C12.4971 56.6866 12.5915 56.781 12.6858 56.8755C12.9185 57.1084 13.1575 57.3413 13.3902 57.568C13.4846 57.6624 13.5852 57.7505 13.6796 57.845C13.994 58.1471 14.3211 58.4367 14.6481 58.7263L14.6607 58.7389C14.7173 58.7893 14.7739 58.8397 14.8305 58.8837C15.1198 59.1355 15.4154 59.3811 15.7111 59.6266C15.8306 59.721 15.9563 59.8218 16.0758 59.9162C16.3148 60.1113 16.5601 60.3002 16.8117 60.4891C16.9438 60.5898 17.0696 60.6905 17.2016 60.785C17.4721 60.9864 17.7488 61.1816 18.0256 61.3768C18.1262 61.4523 18.2268 61.5215 18.3275 61.5908C18.3526 61.6097 18.3778 61.6286 18.4092 61.6475C18.6734 61.83 18.9375 62.0063 19.208 62.1763C19.3212 62.2518 19.4407 62.3337 19.5539 62.4092C19.969 62.6736 20.3841 62.9254 20.8055 63.1773C20.9187 63.2402 21.0382 63.3095 21.1514 63.3724C21.4596 63.555 21.7741 63.7313 22.0885 63.9013C22.2584 63.9957 22.4345 64.0775 22.6106 64.1657C22.837 64.2853 23.0571 64.4049 23.2836 64.5182C23.3339 64.5434 23.3905 64.5686 23.4408 64.5938C23.5288 64.6378 23.6232 64.6819 23.7175 64.726C24.0697 64.8959 24.4282 65.0596 24.7804 65.217C24.8559 65.2485 24.9314 65.2863 25.0069 65.3177C25.4157 65.5003 25.8308 65.6703 26.2522 65.834C26.3528 65.8718 26.4534 65.9158 26.5541 65.9536C26.944 66.1047 27.334 66.2495 27.7239 66.388C27.7742 66.4069 27.8245 66.4195 27.8686 66.4383C28.3025 66.5894 28.7365 66.7279 29.1768 66.8664C29.2837 66.8979 29.3843 66.9294 29.4912 66.9609C29.9378 67.0931 30.3781 67.2568 30.8435 67.3386C60.1272 72.6835 68.6368 49.7237 68.6368 49.7237C61.492 59.0411 48.8124 61.4964 36.7933 58.7641C36.3404 58.6634 35.8939 58.5186 35.4536 58.3864C35.3404 58.3549 35.2335 58.3171 35.1203 58.2856C34.6863 58.1534 34.2586 58.0149 33.831 57.8638C33.7744 57.845 33.7115 57.8198 33.6549 57.8009C33.2712 57.6687 32.8938 57.5239 32.5165 57.3791C32.4095 57.335 32.3026 57.2973 32.1957 57.2532C31.7806 57.0895 31.3718 56.9195 30.963 56.7432C30.8812 56.7055 30.7994 56.674 30.7177 56.6362C30.3718 56.4788 30.0258 56.3152 29.6799 56.1515C29.5793 56.1011 29.4786 56.057 29.378 56.0067C29.1076 55.8745 28.8434 55.736 28.5793 55.5975C28.4032 55.503 28.2208 55.4149 28.0447 55.3142C27.7176 55.1379 27.4031 54.9616 27.0824 54.7727C26.9755 54.7098 26.8685 54.6531 26.7553 54.5902C26.3339 54.3384 25.9188 54.0865 25.5037 53.8221C25.3905 53.7466 25.2773 53.671 25.1641 53.5955C24.8622 53.4003 24.5666 53.2052 24.271 53.0037C24.1766 52.9408 24.076 52.8652 23.9817 52.8023C23.6987 52.6008 23.4156 52.3993 23.1389 52.1916C23.0131 52.0972 22.8873 52.0027 22.7678 51.9083C22.51 51.7131 22.2584 51.518 22.0068 51.3165C21.8936 51.2284 21.7804 51.1339 21.6672 51.0458C21.3464 50.7814 21.0319 50.517 20.7237 50.2463C20.6923 50.2148 20.6546 50.1896 20.6231 50.1581C20.2835 49.8622 19.9564 49.5601 19.6294 49.2516C19.535 49.1634 19.4407 49.0753 19.3464 48.9809C19.1074 48.7542 18.8683 48.515 18.6293 48.2821C18.535 48.1876 18.4407 48.0932 18.3463 48.0051C18.0507 47.7029 17.7551 47.3881 17.4721 47.0733C17.4595 47.0607 17.4406 47.0418 17.4281 47.0293C17.1262 46.6956 16.8306 46.3619 16.5413 46.0157C16.4658 45.9212 16.384 45.8331 16.3085 45.7387C16.0947 45.4806 15.8809 45.2161 15.667 44.9454C15.5853 44.851 15.5098 44.7503 15.4343 44.6558C15.1827 44.3285 14.9375 44.0011 14.6922 43.6674C8.01906 34.5641 5.62277 21.9983 10.9562 11.6799" fill="black"/>
<path d="M25.0499 10.3576C20.6724 16.6657 20.9051 25.108 24.3266 31.7812C24.8989 32.9018 25.5405 33.9847 26.2637 35.0171C26.9178 35.9552 27.6474 37.0758 28.5154 37.8312C28.8361 38.1775 29.1632 38.5237 29.4965 38.8511C29.5846 38.9392 29.6663 39.0211 29.7544 39.1092C30.0814 39.424 30.4148 39.7388 30.7607 40.041C30.7733 40.0535 30.7859 40.0661 30.7984 40.0787C30.7984 40.0787 30.8047 40.0787 30.8047 40.0913C31.1821 40.425 31.5783 40.7461 31.9746 41.0608C32.0626 41.1301 32.1507 41.1993 32.2387 41.2686C32.6413 41.5771 33.0438 41.8792 33.4652 42.1625C33.4777 42.1688 33.4903 42.1814 33.5029 42.1877C33.6853 42.3136 33.874 42.4333 34.0627 42.5592C34.1507 42.6158 34.2388 42.6788 34.3268 42.7354C34.6287 42.9243 34.9306 43.1132 35.2388 43.2957C35.2828 43.3209 35.3268 43.3461 35.3646 43.3713C35.6287 43.5224 35.8992 43.6735 36.1696 43.8183C36.264 43.8686 36.3583 43.919 36.4526 43.9694C36.6413 44.0701 36.8237 44.1645 37.0124 44.259C37.0376 44.2715 37.069 44.2841 37.0942 44.2967C37.4778 44.4919 37.8741 44.6682 38.2703 44.8444C38.3521 44.8822 38.4401 44.9137 38.5282 44.9515C38.8489 45.09 39.1634 45.2159 39.4905 45.3418C39.6288 45.3921 39.7672 45.4425 39.8993 45.4929C40.1886 45.5999 40.4842 45.7006 40.7798 45.8014C40.9119 45.8454 41.044 45.8895 41.176 45.9273C41.5974 46.0595 42.0125 46.2232 42.4528 46.2987C65.0634 50.0508 70.2836 32.6248 70.2836 32.6248C65.5791 39.4051 56.4657 42.6473 46.7422 40.1165C46.3145 40.0032 45.8868 39.8773 45.4654 39.7451C45.3333 39.7073 45.2076 39.6632 45.0818 39.6192C44.7799 39.5184 44.4843 39.4177 44.1887 39.3107C44.0503 39.2603 43.9182 39.2099 43.7861 39.1596C43.4654 39.0337 43.1384 38.9078 42.8239 38.7693C42.7358 38.7315 42.6478 38.7 42.566 38.6622C42.1698 38.4923 41.7735 38.3034 41.3836 38.1145C41.1823 38.0138 40.9874 37.9131 40.7924 37.8123C40.6792 37.7557 40.566 37.6927 40.4527 37.6361C40.2012 37.4976 39.9496 37.3591 39.7043 37.2143C39.6477 37.1828 39.5848 37.1513 39.5282 37.1135C39.22 36.9373 38.9181 36.7484 38.6225 36.5595C38.5282 36.5029 38.4401 36.4336 38.3521 36.377C38.1571 36.251 37.9621 36.1188 37.7672 35.9866C37.3521 35.697 36.9432 35.3949 36.547 35.0927C36.4527 35.0234 36.3646 34.9479 36.2703 34.8786C32.0123 31.5168 28.6411 26.9148 27.0373 21.7084C25.3581 16.3005 25.7166 10.2317 28.6286 5.30856" fill="black"/>
<path d="M40.8617 4.87439C38.2831 8.67688 38.0252 13.3985 39.8177 17.5976C41.7045 22.0549 45.5788 25.5552 50.0947 27.2109C50.2834 27.2801 50.4657 27.3431 50.6544 27.4061C50.7362 27.4312 50.8179 27.4564 50.8997 27.4816C51.1639 27.5634 51.428 27.6642 51.7048 27.7145C64.1893 30.132 67.573 21.2994 68.4787 20.0025C65.5101 24.2772 60.5289 25.3034 54.4092 23.8176C53.9249 23.698 53.3966 23.528 52.9312 23.358C52.3337 23.144 51.7488 22.9048 51.1764 22.6278C50.0884 22.1052 49.0569 21.4757 48.0946 20.7454C42.6228 16.5904 39.2202 8.658 42.7926 2.19879" fill="black"/>
<path d="M61.287 0.146973H10.1684C5.03958 0.146973 0.881836 4.30872 0.881836 9.44251V60.6105C0.881836 65.7443 5.03958 69.906 10.1684 69.906H61.287C66.4159 69.906 70.5736 65.7443 70.5736 60.6105V9.44251C70.5736 4.30872 66.4159 0.146973 61.287 0.146973Z" fill="black"/>
<path d="M24.758 43.9025L22.3839 52.5458H14.5195L24.7807 18.8857H34.7301L45.2009 52.5458H37.0079L34.4242 43.9025H24.7523H24.758ZM33.3023 38.231L31.2059 31.0793C30.628 29.0886 30.033 26.5648 29.5174 24.5968H29.4098C28.9168 26.5762 28.4126 29.134 27.8686 31.085L25.8572 38.231H33.2966H33.3023Z" fill="white" fill-opacity="0.66"/>
<path d="M56.935 21.3129C56.9464 23.4284 55.3826 25.1072 52.8555 25.1072C50.3285 25.1072 48.895 23.4284 48.9063 21.3129C48.895 19.1408 50.4871 17.5074 52.9235 17.5074C55.3599 17.5074 56.9067 19.1351 56.935 21.3129ZM49.116 52.5457V28.1017H56.7197V52.5457H49.116Z" fill="white" fill-opacity="0.66"/>
</svg>
