<svg width="70" height="70" viewBox="0 0 70 70" fill="none" xmlns="http://www.w3.org/2000/svg">
<path d="M52.6871 64.1318C46.616 64.1318 42.6952 61.3852 40.7803 57.5925L46.1132 54.4972C47.5093 56.7932 49.3333 58.3221 52.5587 58.3221C55.2653 58.3221 56.8378 57.1204 56.8378 55.2483C56.8378 53.0006 55.2171 52.2066 52.2271 50.887L50.5956 50.1842C45.8779 48.1726 42.7541 45.6459 42.7541 40.303C42.7541 35.3891 46.4876 31.795 52.3233 31.795C56.4795 31.795 59.4642 33.0878 61.6145 36.8858L56.5169 40.1742C55.3936 38.1626 54.1901 37.374 52.3126 37.374C50.4352 37.374 49.1835 38.5917 49.1835 40.1742C49.1835 42.143 50.3977 42.9369 53.2006 44.1546L54.832 44.8574C60.3895 47.2445 63.5187 49.6854 63.5187 55.1571C63.5187 61.0579 58.8972 64.1318 52.6871 64.1318ZM37.2607 54.1861C37.2607 60.9775 33.2597 64.2873 27.4722 64.2873C22.2409 64.2873 19.208 61.5729 17.6676 58.2953L22.9897 55.0659C24.0167 56.8898 24.7977 58.4347 27.0335 58.4347C28.895 58.4347 30.4301 57.5925 30.4301 54.3149V32.3851H37.2607V54.1861ZM0 6.74309V63.016C0 66.7389 3.01145 69.759 6.72362 69.759H62.834C66.5462 69.759 69.5576 66.7389 69.5576 63.016V6.74309C69.5576 3.02017 66.5462 0 62.834 0H6.72362C3.01145 0 0 3.02017 0 6.74309Z" fill="white"/>
</svg>
