<svg width="71" height="70" viewBox="0 0 71 70" fill="none" xmlns="http://www.w3.org/2000/svg">
<path d="M53.3238 64.2529C47.2527 64.2529 43.332 61.5063 41.417 57.7136L46.7499 54.6183C48.146 56.9143 49.97 58.4432 53.1954 58.4432C55.902 58.4432 57.4746 57.2415 57.4746 55.3694C57.4746 53.1217 55.8538 52.3277 52.8638 51.0081L51.2324 50.3053C46.5146 48.2937 43.3908 45.767 43.3908 40.4241C43.3908 35.5102 47.1244 31.9161 52.9601 31.9161C57.1162 31.9161 60.1009 33.2089 62.2512 37.0069L57.1536 40.2953C56.0304 38.2836 54.8268 37.4951 52.9494 37.4951C51.0719 37.4951 49.8202 38.7128 49.8202 40.2953C49.8202 42.2641 51.0344 43.058 53.8373 44.2757L55.4687 44.9785C61.0263 47.3656 64.1554 49.8064 64.1554 55.2782C64.1554 61.179 59.5339 64.2529 53.3238 64.2529ZM37.8974 54.3072C37.8974 61.0986 33.8964 64.4084 28.1089 64.4084C22.8776 64.4084 19.8448 61.694 18.3043 58.4164L23.6265 55.187C24.6535 57.0109 25.4344 58.5558 27.6703 58.5558C29.5317 58.5558 31.0668 57.7136 31.0668 54.4359V32.5062H37.8974V54.3072ZM0.636719 6.86418V63.1371C0.636719 66.86 3.64817 69.8801 7.36034 69.8801H63.4707C67.1829 69.8801 70.1943 66.86 70.1943 63.1371V6.86418C70.1943 3.14127 67.1829 0.121094 63.4707 0.121094H7.36034C3.64817 0.121094 0.636719 3.14127 0.636719 6.86418Z" fill="black"/>
</svg>
