<?xml version="1.0" encoding="UTF-8"?>
<svg id="Layer_2" data-name="Layer 2" xmlns="http://www.w3.org/2000/svg" xmlns:xlink="http://www.w3.org/1999/xlink" viewBox="0 0 227.08 294.4">
  <defs>
    <style>
      .cls-1 {
        fill: #8c6239;
      }

      .cls-2, .cls-3, .cls-4, .cls-5, .cls-6, .cls-7, .cls-8, .cls-9, .cls-10, .cls-11 {
        stroke-miterlimit: 10;
      }

      .cls-2, .cls-3, .cls-6, .cls-10, .cls-11 {
        stroke-width: .5px;
      }

      .cls-2, .cls-11 {
        stroke: #1a1a1a;
      }

      .cls-12 {
        opacity: .83;
      }

      .cls-13 {
        fill: url(#linear-gradient-2);
        opacity: .32;
      }

      .cls-14 {
        fill: #211106;
      }

      .cls-15 {
        filter: url(#outer-glow-3);
      }

      .cls-15, .cls-16, .cls-17, .cls-18 {
        fill: #b3b3b3;
      }

      .cls-16 {
        filter: url(#outer-glow-4);
      }

      .cls-19 {
        fill: url(#linear-gradient);
        opacity: .54;
      }

      .cls-20, .cls-21, .cls-22 {
        fill: #dbd9e6;
      }

      .cls-3 {
        stroke: #333;
      }

      .cls-3, .cls-4, .cls-23 {
        fill: none;
      }

      .cls-24, .cls-25 {
        fill: #4d4d4d;
      }

      .cls-26 {
        fill: #252242;
      }

      .cls-27 {
        fill: #2b1701;
      }

      .cls-4, .cls-7 {
        stroke: #42210b;
      }

      .cls-28 {
        fill: #603813;
      }

      .cls-29 {
        fill: #333;
      }

      .cls-30, .cls-31 {
        fill: #42210b;
      }

      .cls-32 {
        fill: gray;
      }

      .cls-33 {
        fill: #6a330d;
      }

      .cls-5 {
        fill: #006837;
        stroke: #7d4921;
      }

      .cls-34, .cls-9 {
        fill: #ac8457;
      }

      .cls-6 {
        stroke: #754c24;
      }

      .cls-25 {
        filter: url(#outer-glow-1);
      }

      .cls-35 {
        fill: #f2f2f2;
        filter: url(#outer-glow-2);
      }

      .cls-36 {
        fill: #999;
      }

      .cls-37 {
        fill: #373262;
      }

      .cls-31 {
        opacity: .28;
      }

      .cls-38 {
        fill: #cdb59a;
      }

      .cls-21 {
        opacity: .64;
      }

      .cls-17 {
        filter: url(#outer-glow-5);
      }

      .cls-8, .cls-39 {
        fill: #1a1a1a;
      }

      .cls-8, .cls-9 {
        stroke: #000;
      }

      .cls-40 {
        fill: #bd9d79;
      }

      .cls-18 {
        filter: url(#outer-glow-6);
      }

      .cls-22 {
        opacity: .48;
      }

      .cls-41 {
        fill: #666;
      }

      .cls-10 {
        stroke: #4d4d4d;
      }

      .cls-11 {
        opacity: .43;
      }
    </style>
    <filter id="outer-glow-1" filterUnits="userSpaceOnUse">
      <feOffset dx="0" dy="0"/>
      <feGaussianBlur result="blur" stdDeviation="0"/>
      <feFlood flood-color="red" flood-opacity="0"/>
      <feComposite in2="blur" operator="in"/>
      <feComposite in="SourceGraphic"/>
    </filter>
    <filter id="outer-glow-2" filterUnits="userSpaceOnUse">
      <feOffset dx="0" dy="0"/>
      <feGaussianBlur result="blur-2" stdDeviation="0"/>
      <feFlood flood-color="red" flood-opacity="0"/>
      <feComposite in2="blur-2" operator="in"/>
      <feComposite in="SourceGraphic"/>
    </filter>
    <filter id="outer-glow-3" filterUnits="userSpaceOnUse">
      <feOffset dx="0" dy="0"/>
      <feGaussianBlur result="blur-3" stdDeviation="0"/>
      <feFlood flood-color="red" flood-opacity="0"/>
      <feComposite in2="blur-3" operator="in"/>
      <feComposite in="SourceGraphic"/>
    </filter>
    <filter id="outer-glow-4" filterUnits="userSpaceOnUse">
      <feOffset dx="0" dy="0"/>
      <feGaussianBlur result="blur-4" stdDeviation="0"/>
      <feFlood flood-color="red" flood-opacity="0"/>
      <feComposite in2="blur-4" operator="in"/>
      <feComposite in="SourceGraphic"/>
    </filter>
    <linearGradient id="linear-gradient" x1="62.79" y1="139.84" x2="66.91" y2="139.89" gradientUnits="userSpaceOnUse">
      <stop offset="0" stop-color="#fff"/>
      <stop offset="1" stop-color="#000"/>
    </linearGradient>
    <filter id="outer-glow-5" filterUnits="userSpaceOnUse">
      <feOffset dx="0" dy="0"/>
      <feGaussianBlur result="blur-5" stdDeviation="0"/>
      <feFlood flood-color="red" flood-opacity="0"/>
      <feComposite in2="blur-5" operator="in"/>
      <feComposite in="SourceGraphic"/>
    </filter>
    <filter id="outer-glow-6" filterUnits="userSpaceOnUse">
      <feOffset dx="0" dy="0"/>
      <feGaussianBlur result="blur-6" stdDeviation="0"/>
      <feFlood flood-color="red" flood-opacity="0"/>
      <feComposite in2="blur-6" operator="in"/>
      <feComposite in="SourceGraphic"/>
    </filter>
    <linearGradient id="linear-gradient-2" x1="149.18" y1="149.57" x2="145.14" y2="148.34" xlink:href="#linear-gradient"/>
  </defs>
  <g id="Layer_3" data-name="Layer 3">
    <g>
      <path class="cls-39" d="m202.9,106.38c1.81.76,3.7,1.44,5.41,2.5,1.71,1.04,3.31,2.35,4.49,4.05,1.19,1.68,1.85,3.8,1.8,5.83,0,1.98-.15,4.08-1.09,5.88.32-1.96.19-3.91.13-5.85-.02-1.93-.55-3.75-1.62-5.33-1.03-1.59-2.49-2.9-4.07-4.04-.79-.57-1.63-1.08-2.47-1.58-.84-.51-1.76-.9-2.57-1.47Z"/>
      <path class="cls-29" d="m203.49,105.8c2.52,1.16,4.78,2.89,6.58,5.07.88,1.1,1.64,2.34,2.02,3.74.42,1.38.3,2.93-.35,4.16.27-1.37.1-2.7-.39-3.91-.49-1.21-1.22-2.33-2.06-3.36-.83-1.04-1.78-2-2.75-2.95-.99-.93-1.99-1.85-3.05-2.75Z"/>
      <path class="cls-39" d="m201.14,101.08c1.67.07,3.32-.02,4.94-.19,1.62-.19,3.21-.51,4.74-1.03,1.53-.51,2.94-1.29,4.22-2.25l.93-.77c.29-.28.55-.59.83-.88l.43-.44.36-.5c.24-.34.48-.67.74-1-.63,1.53-1.47,3.07-2.78,4.2-1.27,1.15-2.78,2.05-4.4,2.6-1.63.54-3.32.82-5.01.86-1.69.04-3.38-.13-4.99-.58Z"/>
      <g>
        <path class="cls-9" d="m187.28,172.4c-.32-8.25.92-46.15,1.9-76.17.98-30.03-22.47-46.49-27.35-47.46-4.89-.97-29.63-4.69-53.08-.81-17.33,2.86-34.41,2.59-42.15,2.25-3.03-.13-6,.89-8.26,2.9-4.87,4.32-12.73,12.92-14.72,24.73,0,0,1.96,7.75-2.93,20.34-4.89,12.59-14.65,36.8-19.54,55.21-4.71,17.75-3.97,21.98-3.92,22.26-.18-.31-2.83-5.05,0-11.61,2.93-6.78-2.95-11.08-2.95-11.08,0,0-6.82,10.11-5.84,17.86.81,6.46,4.34,6.19,5.5,5.92-3.55,1.23-3.55,6.67-3.55,6.67.98-3.87,6.84-5.81,6.84-5.81,0,0,0,8.72-.98,9.68s-4.33,4.57-4.33,4.57c2.93-.97,5.3-3.61,5.3-3.61v8.72c.03,2.79,1.25,54.11,47.07,85.26,38.58,26.23,78.51-11.96,91.72-26.67,2.79-3.11,5.15-6.57,7.03-10.3,4.21-8.39,12.36-24.76,13-27.1,0,0,11.52-38.09,11.21-45.75Z"/>
        <path class="cls-40" d="m121.25,48.53s-31.21.38-38.87,24.55c-7.66,24.17-.29,24.46,2.06,34.48s3.54,21.22,1.18,30.06-8.84-2.36-14.73,18.86-21.81,27.11-22.4,43.62-5.3,20.63-7.66,29.47c-.15.55-.32,1.11-.53,1.66-2.65,7.24-13.33,5.91-14.31-1.74-3.76-29.09-10.28-84.45-8.15-103.66,2.95-26.52,15.32-77.21,19.45-80.16s-4.72-4.72,9.43-5.3,27.7-9.43,39.49-9.43,20.04,4.13,25.93,7.66,18.34,6.85,18.34,6.85l-9.23,3.08Z"/>
        <path class="cls-9" d="m15.18,174.45c-.05-.25-.64-3.67,2.61-17.09-.05-.24-.16-.68-.31-1.26-1.41-4.76-4.35-12.55-8.25-15.38-.87-.59-1.82-.99-2.83-1.12,0,0-3.9-.97-4.88,4.85-1.3,7.7-.98,8.72-.98,11.62s2.93,11.63,2.93,11.63c0,0,1.95,4.84.98,12.59-.98,7.75-2.93,9.68,1.95,15.5,4.89,5.81,8.79,0,8.79,0l-.3-9.83s1.17,1.39-1.77,2.36c0,0,.79-1.39,1.77-2.36s.3-9.54.3-9.54"/>
        <path class="cls-33" d="m12.26,182.22c-.17.77-.46,1.49-.81,2.18-.34.7-.77,1.35-1.24,1.97-.48.61-1.02,1.2-1.65,1.68-.62.48-1.36.9-2.16.95.65-.44,1.14-.98,1.63-1.52.48-.55.95-1.12,1.39-1.71.92-1.17,1.78-2.39,2.83-3.54Z"/>
        <path d="m9.13,144.19c-.7-.7-1.71-.4-2.4.07-.73.47-1.34,1.14-1.84,1.85-1.01,1.45-1.63,3.14-1.93,4.88-.31,1.74-.28,3.55-.04,5.33.27,1.78.72,3.55,1.32,5.3-1.91-3.14-2.91-7.02-2.27-10.8.34-1.87,1.06-3.71,2.3-5.19.61-.74,1.35-1.39,2.23-1.81.44-.19.93-.33,1.42-.31.49,0,.98.26,1.21.67Z"/>
        <g>
          <path class="cls-23" d="m183.06,176.78l1-4.69c-.55,1.21-.97,2.75-1,4.69Z"/>
          <path class="cls-40" d="m177.77,192.14c.05-.11.32-.79.58-2.64l-3.15,8.23,1.51,3.76c1.04-3.75,3.22-9.55,4.05-11.73-1.43,1.48-2.87,2.24-2.99,2.37Z"/>
          <path class="cls-9" d="m180.76,189.77c.1-.11.21-.22.31-.33.02-.34.03-.54.03-.54,0,0-.13.33-.34.88Z"/>
          <path class="cls-9" d="m195.15,156.94c-1.14-.1-2.26.11-3.34.55-4.89,2.13-9.84,9.77-12.44,14.53-.29.58-.51,1.03-.62,1.27.32,8.78-.03,13.63-.39,16.21-.26,1.85-.54,2.53-.58,2.63.11-.12,1.56-.89,2.99-2.37-.84,2.19-3.02,7.99-4.05,11.73-.47,1.69-.7,2.96-.48,3.29.85,1.26,1.92,4.74,1.92,4.74-2.99-1.7-3.2-3.93-3.2-3.93l-1.95,9.31s3.81,7.37,10.45,2.28c6.62-5.09,4.07-7.88,4.74-16.37.67-8.5,3.88-13.21,3.88-13.21,0,0,5.15-8.64,5.8-11.75.65-3.1,1.22-4.11,1.52-12.63.24-6.42-4.24-6.28-4.24-6.28Zm-11.1,33.73c-1.56,1.87,0,3.54-1.18,6.48-.46,1.14.29,7.37.29,7.37-2.61-1.04-2.22-12.44-2.09-15.08,1.7-1.87,3.25-4.77,2.39-8.79-.31-1.43-.41-2.71-.39-3.87.04-1.93.46-3.48,1.01-4.69.78-1.73,1.22-1.59,1.74-2.06.17,2.06.88,3.83,2.65,10.31.54,1.98-3.73,9.48-4.42,10.31Z"/>
          <path class="cls-40" d="m182.52,179.79c1.65,4.59-.51,8.12-2.97,10.49.02,3.07.34,16.38,4.44,17.31,0,0-.85-5.81-.24-7.19,1.58-3.55-.59-6.48.49-9.01.57-1.33,6.4-9.37,5.41-11.62-3.25-7.35-3.09-11.62-3.52-14-.77.6-2.28,1.92-3.34,4.01l-1.17,5.56c.06,1.34.33,2.82.92,4.45Z"/>
        </g>
        <path d="m93.56,191.94s-3.19-8.68-11.15-8.68-1.59,6.94,3.19,6.94,7.97,1.74,7.97,1.74Z"/>
        <path d="m108.37,191.63s0,.03.02.08c.15.69,1.35,5.56,6.06,3.77,5.07-1.92,5.07-4.81,8.11-4.81,0,0-2.8-4.44-11.11-1.38-.74.27-1.43.68-2.03,1.2-.44.38-.89.82-1.05,1.15Z"/>
        <path class="cls-33" d="m75.76,188.03c-1.5-1.83-2.52-4.26-2.2-6.79.14-1.26.7-2.45,1.47-3.45.77-1,1.77-1.78,2.81-2.43,2.11-1.2,4.24-2.26,6.48-3.13.56-.22,1.11-.42,1.6-.69.49-.26.89-.65,1.28-1.08.78-.87,1.48-1.85,2.24-2.77-.58,1.05-1.18,2.07-1.86,3.08-.36.49-.79.97-1.33,1.31-.53.35-1.08.6-1.62.86-2.13,1.02-4.25,2.1-6.27,3.28-1.96,1.16-3.61,2.92-4.04,5.15-.23,1.1-.16,2.27.13,3.4.25,1.14.72,2.23,1.31,3.27Z"/>
        <path class="cls-33" d="m118.74,166.72c-.36,1.39-.55,2.81-.49,4.22.03,1.4.31,2.79.94,4.01.62,1.21,1.55,2.24,2.7,2.97,1.21.79,2.38,1.69,3.43,2.73,1.03,1.05,1.96,2.23,2.6,3.59.62,1.35,1.01,2.94.58,4.46-.18.76-.67,1.44-1.06,1.98-.41.58-.78,1.19-1.21,1.78-.42.59-.93,1.17-1.56,1.55-.63.39-1.32.62-2.01.8.66-.27,1.31-.59,1.87-1.01.56-.42.96-.99,1.31-1.6l1.08-1.85c.4-.63.73-1.17.85-1.83.26-1.29-.07-2.66-.69-3.87-.61-1.22-1.47-2.32-2.46-3.3-.98-.99-2.08-1.86-3.25-2.65-1.23-.86-2.29-2.04-2.87-3.43-1.19-2.8-.83-5.92.25-8.55Z"/>
        <path class="cls-33" d="m184.84,198.08c.92-1.62,1.82-3.17,2.56-4.79.39-.8.69-1.63,1-2.47.3-.85.5-1.71.74-2.63.18.92.19,1.89.02,2.82-.16.93-.45,1.85-.85,2.7-.41.85-.89,1.67-1.47,2.41-.58.74-1.23,1.43-2,1.97Z"/>
        <path d="m188.76,161.2c.57-.97,1.45-1.79,2.56-2.22,1.12-.41,2.45-.29,3.5.35,1.06.63,1.79,1.69,2.23,2.78.45,1.1.65,2.27.73,3.42.14,2.32-.25,4.6-.84,6.78-.61,2.18-1.43,4.29-2.45,6.3.3-1.09.65-2.15.92-3.23.3-1.07.56-2.16.78-3.24.4-2.17.74-4.37.59-6.54-.06-1.08-.24-2.15-.61-3.14-.35-1-.95-1.88-1.77-2.48-.82-.6-1.92-.79-2.94-.53-1.04.24-1.96.92-2.71,1.76Z"/>
        <path class="cls-1" d="m190.53,178.88c.07-.66.19-1.29.29-1.93.11-.64.15-1.28.26-1.91.09-1.26.22-2.53.01-3.74-.14-1.24-.64-2.29-1.24-3.5l-.18-.5c-.05-.18-.07-.37-.1-.56,0-.19.04-.38.06-.57.03-.18.13-.34.19-.51.15-.33.39-.57.59-.84.23-.24.47-.47.71-.69-.16.29-.32.57-.5.84-.12.29-.29.57-.34.86-.2.58-.04,1.08.27,1.6.33.52.68,1.11.97,1.73.26.64.46,1.31.56,1.98.21,1.37.02,2.71-.23,4.01-.17.64-.33,1.28-.55,1.9-.26.61-.48,1.22-.76,1.81Z"/>
        <path class="cls-40" d="m13.06,177.34s-.08.04-.12.07c-1.77.94-4.01,2.54-4.59,4.81,0,0,0-5.44,3.55-6.67-1.16.27-3.84.21-4.38-5.8-1.04-11.75,5.01-17.98,5.01-17.98,0,0,4.42,4.42,2.66,11.08-.73,2.75-1.39,4.94-1.28,6.81,0,0,.98,2.74,2.74,4.51s3.54,2.36,3.54,2.36c0,0-4.83-1.9-7.13.82Z"/>
        <path class="cls-27" d="m17.83,152.95s39.49,15.91,87.82-5.89c0,0,66.31,43.91,80.45,19.74,0,0-4.13,122-100.49,127.6,0,0-89-33.01-67.78-141.45Z"/>
        <path class="cls-40" d="m161.35,50.1s40.08,27.7,23.58,87.23c0,0,5.3-54.81-23.58-87.23Z"/>
        <path class="cls-5" d="m34.66,235.66s.01.07.01.21v-.21Z"/>
        <path class="cls-33" d="m7.37,178.34c-.6-.63-1.06-1.37-1.43-2.14-.38-.77-.66-1.6-.86-2.44-.19-.84-.27-1.72-.24-2.59.03-.87.23-1.73.58-2.52.06.87.09,1.68.2,2.49.12.81.23,1.61.43,2.4.35,1.59.84,3.15,1.32,4.79Z"/>
        <g class="cls-12">
          <path class="cls-11" d="m183.2,138.44c-3.74-2.16-32.16-17.6-61.85-4.69,0,0-7.18,11,1.73,29.45,1.53,3.17,3.95,5.84,6.96,7.69,2.86,1.76,6.75,3.82,10.65,4.82,9.51,2.43,32.19,4.24,38.17-3.23,5.98-7.47,9.22-27.65,6.17-31.43-1.64-2.03-1.92-2.55-1.83-2.61Z"/>
          <path class="cls-11" d="m35.32,117.35c.07.08-.34.52-2.46,2.08-3.95,2.91-5.93,23.25-1.98,31.96,3.95,8.72,26.62,12.59,36.55,12.59,4.07,0,8.41-1.03,11.66-2.03,3.42-1.05,6.47-3.04,8.77-5.73,13.43-15.66,9.2-28.08,9.2-28.08-25.77-19.86-57.54-11.96-61.75-10.79Z"/>
        </g>
        <path class="cls-23" d="m194.94,28.22s-1.95-.97-2.94-.97c0,0,1.91,1.08,3.85,2.68-.13-.63-.37-1.17-.92-1.71Z"/>
        <path class="cls-23" d="m17.79,157.36s0,0,0,0c-.08-.4-.18-.82-.31-1.26.15.58.26,1.02.31,1.26Z"/>
        <g>
          <path class="cls-4" d="m194.94,28.22s-1.95-.97-2.94-.97c0,0,1.91,1.08,3.85,2.68-.13-.63-.37-1.17-.92-1.71Z"/>
          <path class="cls-7" d="m211.54,108.61c-3.91-.97-5.86-4.84-5.86-4.84,9.77,1.94,16.61-14.53,14.65-29.06-1.95-14.52-10.74-9.68-13.68-16.47-2.93-6.77-8.79-5.81-11.72-13.56-2.94-7.75-3.91-15.5-3.91-15.5,0,0,2.85.57,5.07,2.99.07.66.18,1.42.42,2.32.27.97.68,2.09,1.35,3.41,2.93,5.81,1.95,9.68,1.95,9.68,1.88-3.74,1.27-6.57.24-9.15,2.05,2.24,4.43,3.25,4.63,3.33-.23-.17-3.93-3.02-4.87-6.77-.28-1.13-1.07-2.26-2.04-3.3-.03-.51,0-1.02.09-1.55.98-5.81-2.93-9.68-2.93-9.68l1.95-1.94c9.54-6.62,15.35,2.46,15.62,2.89-3.91-15.48-20.51-4.83-22.46-2.89-1.95,1.94-3.9.97-3.9.97-.98-8.72-11.73-7.75-11.73-7.75,2.93-6.78,11.73,0,11.73,0-1.96-2.91-1.96-4.85-9.77-4.85s-9.77-2.9-9.77-2.9c-11.72-3.88-14.65,8.72-19.54,5.81-4.89-2.9-8.79,2.91-12.7-.97-3.91-3.87-15.63-3.87-16.61-2.9-.98.97-4.89-7.75-16.61-4.85-11.73,2.91-6.84,0-14.65.97-7.82.97-12.7,7.74-14.65,12.59-1.95,4.85-11.72,4.85-11.72,4.85-14.65-3.88-19.54-.97-19.54-.97,9.77,0,8.79,1.94,8.79,1.94-11.72-1.94-17.58,7.75-17.58,7.75-11.72,5.81-11.72,13.56-11.72,13.56-.98-2.9,1.95-8.72,1.95-8.72-6.84,4.85-4.89,17.43-4.89,17.43-5.86-7.75-2.93-12.59-2.93-12.59-4.89,2.9-2.93,7.75-1.95,10.65.98,2.91.98,1.94,0,13.56-.98,11.62,2.93,11.62.98,12.59-1.95.97-3.91-7.75-3.91-7.75-.98,5.81,2.93,10.66,2.93,12.59s-3.91,1.94-5.86,2.9c-1.95.97-3.9,11.63-1.95,15.5,1.95,3.88,2.93,18.4,2.93,18.4-1.95,10.66-.98,23.19-.98,23.19,0,0,1.35,0,2.84,1.17,4.65,3.15,7.33,11.89,8.25,15.38.13.44.23.85.31,1.26.38-1.58.81-3.29,1.31-5.16,4.88-18.41,14.65-42.62,19.54-55.21,4.89-12.59,2.93-20.34,2.93-20.34,2.11-12.52,10.82-18.76,15.56-22.79,1.8-1.53,4.11-2.32,6.47-2.21,7.22.35,25.02.11,43.09-2.87,23.45-3.88,44.83-.15,49.71.81,4.88.97,28.33,17.43,27.35,47.46-.62,19.19,2.92,39.95,3.63,56.4.04.95.08,1.88.13,2.79l.63,4,3.03-5.39c.61-1,2.92-4.73,3.76-5.57.98-.97,1.95,0,1.95,0-.98,3.88.98,6.78.98,6.78-.98-6.78,2.93-15.5,7.82-26.15,4.89-10.65-3.9-18.4-3.9-18.4,3.9-.97,8.79,6.78,8.79,6.78,0-4.85-9.77-11.63-9.77-11.63,0,0,1.96-.97,8.8,5.81,6.7,6.65,2.13,14.24,1.96,14.52,7.8-3.88.97-15.49.97-15.49,12.7,2.9,13.68-9.68,13.68-9.68-1.96,6.77-10.75,7.75-14.65,6.77Zm-16.61-80.39c.55.54.79,1.08.92,1.71-1.95-1.6-3.85-2.68-3.85-2.68.98,0,2.94.97,2.94.97ZM24.32,40.96c-1.35,0-4.72,4.72-4.72,4.72l3.28-5.91s3.37-1.33,5.39-.67c2.02.67,3.37,1.33,3.37,1.33,0,0-5.97.53-7.32.53Z"/>
        </g>
        <path class="cls-39" d="m95.29,20.47c-1.04-1.23-2.13-2.4-3.21-3.56-1.1-1.14-2.2-2.28-3.39-3.3-1.18-1.03-2.41-2.02-3.74-2.84-1.34-.8-2.75-1.5-4.31-1.92,1.62.03,3.23.51,4.69,1.24,1.48.72,2.79,1.72,4.02,2.77,1.22,1.08,2.32,2.27,3.32,3.55,1,1.27,1.89,2.62,2.62,4.06Z"/>
        <path class="cls-4" d="m94.84,151.38s2.56-1.38,3.15-10.22,3.54-10.02,3.54-10.02"/>
        <path class="cls-29" d="m14.8,144.55c.07-1,.38-1.97.82-2.88.44-.91,1.04-1.76,1.78-2.47.74-.7,1.54-1.3,2.41-1.8.86-.5,1.77-.93,2.73-1.19-1.54,1.26-3.09,2.39-4.45,3.71-.68.63-1.26,1.37-1.8,2.14-.54.78-1.02,1.61-1.49,2.49Z"/>
        <path d="m29.87,136.12l-1.85,8.18s-2.02-21.36,0-24.69,12.12-4.67,12.12-4.67l-3.86,5.97c-3.02,4.66-5.18,9.81-6.41,15.22Z"/>
        <g>
          <path d="m95.58,123.68c-3.26,0-11.7-.36-19.73-3.68-3.94-1.63-8.52-2.45-13.6-2.45-5.36,0-9.8.94-11.36,1.32.94-1.28,2.38-1.29,2.4-1.29h2.05l-1.99-.49c-.36-.09-.76-.14-1.19-.14-2.89,0-6.58,2.03-8.49,3.22,4.24-4.76,12.51-6.45,12.6-6.47l.72-.14-.66-.33c-.49-.24-1.12-.39-1.89-.44,1.58-.22,3.31-.33,5.19-.33,6.67,0,12.92,1.42,12.98,1.43l.34.08-.03-.34c-.11-1.22-2.56-1.82-4.55-2.12.26,0,.54-.01.82-.01,4.42,0,9.39,1.22,9.44,1.23l.14-.48-1.02-.34c3.32.44,6.67,1.76,6.71,1.78l1.14.45-.87-.86c-.52-.52-1.3-1.03-1.93-1.4,3.53.62,7.42,3.68,7.46,3.71l.41.32v-.52c0-.51-.41-1-.87-1.38.76.27,1.48.62,1.49.63l1.38.69-1.41-1.4c.53.26.94.66.94.67l.43.42v-.6c0-.54-.45-1.04-.94-1.43,4.68,1.11,6.33,3.48,6.34,3.51l.46.68v-.82c0-.6-.6-1.46-1.16-2.13,5.03,2.7,5.49,7.12,5.54,7.84l-.9.89c-.25.25-2.38.72-6.37.72h0Z"/>
          <path class="cls-39" d="m70.88,111.8c3.87.24,7.64,1.16,7.69,1.17l.19-.65c2.91.53,5.57,1.58,5.61,1.59l2.27.9-1.73-1.72c-.21-.21-.45-.41-.72-.61,3.01,1.01,5.88,3.26,5.91,3.29l.81.64v-1.03c0-.26-.08-.51-.22-.74.2.09.36.16.48.22l2.77,1.37-1.07-1.06v-.76c0-.34-.14-.66-.36-.95,3.88,1.15,5.29,3.14,5.31,3.17l.91,1.36v-1.64c0-.38-.2-.84-.48-1.29,3.81,2.53,4.3,6.02,4.36,6.9l-.81.8c-.3.23-2.43.65-6.21.65-3.24,0-11.64-.36-19.64-3.66-3.97-1.64-8.58-2.47-13.69-2.47-2.06,0-3.99.14-5.67.33l-3.18-.79c-.38-.09-.8-.14-1.25-.14-2.19,0-4.82,1.14-6.82,2.21,4.37-3.62,10.9-4.95,10.98-4.97l1.44-.29-1.32-.65c-.11-.05-.23-.1-.35-.15,1.11-.1,2.29-.15,3.53-.15,6.64,0,12.87,1.41,12.93,1.42l.67.15-.06-.69c-.08-.84-1.05-1.41-2.28-1.8m-15.82,6.03c-1.4.2-2.57.43-3.4.61.76-.59,1.58-.61,1.63-.61h1.77m14.13-6.58c-1.13,0-2.22.08-3.2.27,0,0,6.52.39,6.68,2.13,0,0-6.27-1.44-13.04-1.44-3.18,0-6.46.32-9.27,1.24,0,0,1.74-.43,3.47-.43.87,0,1.74.11,2.39.43,0,0-9.77,1.94-13.68,7.75,0,0,5.65-4,9.61-4,.4,0,.78.04,1.13.13,0,0-1.95,0-2.93,1.94,0,0,5.18-1.47,11.89-1.47,4.2,0,8.99.57,13.5,2.44,6.94,2.87,14.56,3.7,19.83,3.7,3.64,0,6.15-.4,6.55-.79l.98-.97s0-5.81-6.84-8.72c0,0,1.95,1.94,1.95,2.91,0,0-1.95-2.91-7.81-3.87,0,0,1.95.97,1.95,1.94,0,0-.98-.97-1.95-.97l.98.97s-1.95-.97-2.93-.97c0,0,1.95.97,1.95,1.94,0,0-4.88-3.87-8.79-3.87,0,0,1.95.97,2.93,1.94,0,0-4.88-1.94-8.79-1.94l2.93.97s-5-1.24-9.5-1.24h0Z"/>
        </g>
        <g>
          <path d="m176.45,131.47c-2.25-1.07-5.56-2.14-10.21-2.56-.06,0-3.9-.04-7.69-2.86l-.4-.3v.5c0,.18.05.43.18.66-.9-.09-2.15-.3-2.68-.84-.35-.35-1.28-.5-3-.5-1.55,0-3.51.13-5.24.25-1.43.1-2.78.19-3.66.19-.69,0-2.27.15-4.45.36-3.85.37-9.68.93-14.15.93-4.79,0-6.23-.64-6.59-1.18l-.04-.05-.06-.03s-.46-.25-.63-.95c-.29-1.11.07-2.57.96-3.9,1.09-1.63,2.76-2.78,4.68-3.25-1.17,1.19-3.41,3.6-3.41,4.44v.82l.46-.68s1.57-2.26,5.24-3.41c-.44.37-.82.84-.82,1.33v.46l.39-.26s1.83-1.19,3.98-1.69c-.74.39-1.44.91-1.44,1.48v.46l.39-.26s2.43-1.58,5.73-1.85c-.58.4-1.23,1-1.23,1.65v.4l.36-.18s1.16-.57,2.09-.82l-.42.42.31.39s2.07-1.35,4.41-1.77l-2.8,1.39,2.22-.55s1.73-.42,3.7-.42c1.15,0,2.16.14,3,.42.38.12.74.25,1.09.37,1.57.54,2.93,1.01,4.43,1.01.81,0,1.61-.14,2.45-.41.84-.28,1.68-.42,2.49-.42.3,0,.57.02.81.05-1.35.19-3.3.66-4.54,1.89l-.59.58.81-.16s3.21-.63,6.6-.63c2.15,0,3.9.24,5.23.71-.22-.02-.45-.04-.67-.04-.74,0-1.29.17-1.62.5l-.43.43h.61c.12,0,.3.01.51.04h0c-.47,0-.76.25-.76.68v.3l.3-.06s.62-.12,1.48-.19l.22-.02h.19c.24-.02.5-.03.76-.03.89,0,1.98.09,2.89.46-.58-.09-1.27-.18-1.92-.18-.92,0-1.54.16-1.88.5l-.4.4.56.03c2.1.11,7.07.7,9.15,2.17-.93-.41-2.39-.81-4.54-.81-.54,0-1.11.03-1.69.08l-1.43.13,1.39.36c.07.02,5.15,1.37,9.32,4Z"/>
          <path class="cls-39" d="m122.61,118.46c-1.29,1.37-2.81,3.14-2.81,3.92v1.62s.91-1.34.91-1.34c.02-.02,1.27-1.82,4.21-2.99-.15.24-.24.5-.24.77v.93s.78-.51.78-.51c.02-.01,1.07-.7,2.51-1.23-.22.25-.35.52-.35.81v.93s.78-.51.78-.51c.02-.02,1.99-1.29,4.77-1.72-.37.37-.66.82-.66,1.3v.81s.72-.36.72-.36c.29-.15.91-.43,1.51-.64l.41.5-.6.3,4.43-1.09s1.71-.42,3.64-.42c1.12,0,2.1.14,2.92.41.38.12.74.25,1.08.37,1.59.55,2.97,1.03,4.51,1.03.83,0,1.66-.14,2.53-.43.15-.05.3-.1.45-.14-.71.3-1.39.7-1.94,1.24l-1.18,1.17,1.63-.32s3.19-.62,6.56-.62c1.34,0,2.54.1,3.58.29-.33.1-.61.25-.82.45l-.86.85h.82c-.07.14-.11.3-.11.47v.61s.6-.12.6-.12c0,0,.55-.11,1.33-.18.17.07.3.13.3.13l.04.02c-.06.04-.12.09-.17.14l-.8.8,1.13.06c1.78.09,4.16.4,6.13.93-.46-.05-.97-.07-1.51-.07-.55,0-1.12.03-1.71.08l-2.85.26,2.77.72c.05.01,2.81.75,5.9,2.17-1.85-.54-4.08-.98-6.75-1.22-.04,0-3.8-.04-7.52-2.81l-.8-.59v.99c0,.11.01.24.05.36-.87-.12-1.75-.35-2.12-.72-.29-.28-.89-.58-3.17-.58-1.56,0-3.52.13-5.25.25-1.43.09-2.78.18-3.65.18-.7,0-2.28.15-4.47.36-3.85.37-9.67.93-14.13.93-5.12,0-6.17-.75-6.39-1.07l-.08-.1-.1-.06s-.37-.21-.51-.79c-.27-1.05.08-2.43.93-3.7.88-1.31,2.14-2.3,3.61-2.86m1.6-.93c-4.69.66-7.29,5.01-6.62,7.61.21.83.76,1.11.76,1.11.65.97,3.36,1.29,6.8,1.29,6.87,0,16.64-1.29,18.6-1.29s6.08-.43,8.9-.43c1.41,0,2.5.11,2.82.43.94.93,3.69.97,3.9.97-.96,0-.96-.97-.96-.97,3.91,2.91,7.81,2.91,7.81,2.91,10.42.94,13.95,5.06,14.15,5.32-3.91-4.84-13.18-7.25-13.18-7.25.6-.05,1.15-.08,1.67-.08,4.12,0,5.66,1.53,5.66,1.53-.98-2.91-10.26-3.39-10.26-3.39.33-.32.98-.43,1.7-.43,1.45,0,3.18.43,3.18.43-.98-.97-2.69-1.21-4.15-1.21-.27,0-.53,0-.77.02.02.07.04.14.04.22,0,0-.19-.09-.45-.19-.89.07-1.5.19-1.5.19,0-.32.22-.43.51-.43.31,0,.7.12,1,.24.13-.01.27-.02.41-.03-.27-.75-1.92-.75-1.92-.75.33-.32.87-.43,1.45-.43,1.16,0,2.46.43,2.46.43-1.67-1.25-4.43-1.6-7.02-1.6-3.46,0-6.65.63-6.65.63,1.95-1.94,5.86-1.94,5.86-1.94,0,0-.87-.43-2.32-.43-.72,0-1.59.11-2.57.43-.86.28-1.63.4-2.37.4-1.79,0-3.37-.68-5.44-1.37-.98-.32-2.06-.43-3.08-.43-2.03,0-3.76.43-3.76.43l1.95-.97c-2.93,0-5.86,1.94-5.86,1.94l.98-.97c-.98,0-2.93.97-2.93.97,0-.97,1.95-1.94,1.95-1.94-3.91,0-6.84,1.94-6.84,1.94,0-.97,2.93-1.94,2.93-1.94-2.93,0-5.86,1.94-5.86,1.94,0-.97,1.95-1.94,1.95-1.94-4.88.97-6.84,3.87-6.84,3.87,0-.97,3.91-4.84,3.91-4.84h0Zm35.15,9.69s0,0,.01,0c0,0,0,0-.01,0h0Zm21.01,7.25s0,0,0,.01c0,0,0,0,0-.01h0Zm0,.01h0s0,0,0,0h0Z"/>
        </g>
        <path class="cls-39" d="m15.81,146.89c-.24-.7-.54-1.34-.77-2.04-.24-.69-.43-1.4-.54-2.15-.03-.38-.07-.77-.01-1.18.05-.4.24-.89.52-1.18.53-.66,1.41-.97,2.15-.79-.71.25-1.22.7-1.51,1.24-.15.29-.21.51-.21.82-.02.3.02.64.06.97.08.68.22,1.37.3,2.09.08.71.19,1.47,0,2.21Z"/>
        <polygon class="cls-10" points="196.71 146.85 196.71 139.69 193.18 139.1 186 159.72 190.21 157.95 196.42 147.15 196.71 146.85"/>
        <path class="cls-39" d="m195.83,114.05c1.59,2.53,2.97,5.2,4.14,7.97.6,1.38,1.09,2.81,1.45,4.3.1.37.17.75.22,1.13.07.38.11.77.11,1.17.04.39-.02.81-.09,1.23-.06.43-.2.74-.29,1.12-.88,2.86-1.8,5.68-2.61,8.54-.41,1.43-.77,2.87-1.07,4.32-.33,1.45-.55,2.92-.67,4.41-.18-3,.36-6,1-8.92.64-2.93,1.55-5.79,2.4-8.64.09-.35.25-.73.28-1.04.06-.32.11-.64.08-1,0-.34-.02-.7-.09-1.05-.04-.35-.1-.71-.19-1.06-.29-1.42-.76-2.83-1.24-4.23-.49-1.4-1.05-2.78-1.63-4.14-.56-1.38-1.18-2.73-1.79-4.1Z"/>
        <path class="cls-31" d="m70.82,157s-9.67,26.3-16.15,29.84-7.66,15.32-10.02,24.17c-2.36,8.84-7.49,29.32-14.35,30.57,0,0-25.14-27.62-11.58-88.33,0,0,27.7,9.43,52.1,3.75Z"/>
        <polygon class="cls-3" points="196.71 146.17 189.64 158.38 185.52 159.14 189.64 147.94 196.71 146.17"/>
        <path d="m38.03,32.76s6.06-3.34,11.44-.67-4.04,4-6.06,3.34-5.39-2.67-5.39-2.67Z"/>
        <path class="cls-39" d="m34.77,102.78c-.36.84-.87,1.6-1.37,2.36-.5.76-1.04,1.5-1.6,2.22-1.11,1.44-2.26,2.86-3.5,4.19-1.23,1.34-2.52,2.64-3.88,3.85-.67.62-1.39,1.19-2.08,1.78-.74.55-1.44,1.12-2.21,1.63-.74.53-1.55.98-2.34,1.44-.78.44-1.48.95-2.12,1.57-1.28,1.22-2.25,2.75-3.08,4.34-.83,1.6-1.48,3.29-2.14,4.97-.34.84-.67,1.69-1.1,2.5-.22.4-.46.79-.77,1.13-.3.34-.73.6-1.2.58.46,0,.86-.28,1.14-.62.29-.35.5-.74.69-1.15.38-.81.68-1.67.99-2.52.6-1.71,1.18-3.43,1.96-5.09.77-1.65,1.76-3.24,3.07-4.57.65-.66,1.41-1.23,2.2-1.72.74-.5,1.48-1.01,2.19-1.56,2.86-2.15,5.49-4.63,8.01-7.19,1.26-1.29,2.5-2.6,3.7-3.94,1.17-1.37,2.43-2.68,3.43-4.19Z"/>
        <path class="cls-6" d="m182.27,138.21s1.95,18.5.68,26.05l3.45-4.24,2.95-11.79.59-7.07-4.72-3.54-2.95.59Z"/>
        <path class="cls-2" d="m118.37,126.2c-23.44,0-31.26-10.65-52.75-13.56-21.49-2.91-45.91.97-45.91.97l-3.91,12.59v16.47l.53-.61c1.5-.89,1.63-2.97,1.44-4.66-.62-5.42,3.89-16.04,3.89-16.04,3.91,2.91,3.91,13.56,3.91,13.56-.98,18.4,4.88,22.28,4.88,22.28,10.75,8.72,32.24,9.69,46.89,8.72,14.65-.97,23.44-28.09,23.44-28.09,8.92-8.16,12.76,3.18,12.7,1.94-1.04,12.9,2.63,21.4,6.29,26.53,2.61,3.66,6.32,6.42,10.57,7.95,51.67,18.63,54.55-2.86,58.36-16.08,3.91-13.56,8.79-11.62,8.79-11.62v-6.78c-51.77-19.37-55.68-13.56-79.13-13.56Zm59.91,46.29c-5.98,7.47-28.67,5.67-38.17,3.23-3.9-1-7.79-3.06-10.65-4.82-3.01-1.86-5.43-4.53-6.96-7.69-8.91-18.45-1.73-29.45-1.73-29.45,29.69-12.91,58.11,2.52,61.85,4.69.08-.05.43.25.43.25,0,0-.15-.09-.43-.25-.09.06.19.58,1.83,2.61,3.05,3.78-.19,23.96-6.17,31.43Zm-91.48-16.27c-2.28,2.69-5.3,4.67-8.68,5.73-3.21,1-7.5,2.03-11.53,2.03-9.82,0-32.24-3.87-36.14-12.59-3.91-8.72-1.95-29.06,1.95-31.96,2.09-1.56,2.5-2,2.43-2.08-.3.09-.48.14-.48.14,0,0,.42-.2.48-.14,4.16-1.17,35.58-9.06,61.07,10.79,0,0,4.18,12.43-9.1,28.08Z"/>
        <path class="cls-6" d="m34.36,117.48s.17-.05.48-.14c-.06-.07-.48.14-.48.14Z"/>
        <path class="cls-39" d="m102.41,130.25s8.84-2.36,12.97,1.18c0,0-1.18-4.72-11.2-3.54,0,0-4.13.53-4.13,3.54,0,.59,0,0,0,0,0,0,1.77-1.18,2.36-1.18Z"/>
        <path class="cls-39" d="m19.01,138.8c-.54.78-1.07,1.52-1.55,2.28-.48.76-.93,1.53-1.21,2.34-.15.4-.25.8-.28,1.2-.05.42.01.73.11,1.24.08.47.14.95.12,1.44-.02.25-.04.49-.12.74-.07.22-.23.53-.5.52.22-.11.21-.36.21-.56,0-.21-.06-.43-.1-.65-.1-.43-.25-.86-.39-1.28-.16-.38-.32-.98-.3-1.49.02-.52.13-1.03.3-1.5.36-.93.9-1.75,1.54-2.46.63-.71,1.35-1.34,2.17-1.82Z"/>
        <g>
          <path class="cls-39" d="m105.06,151.18s-14.15,81.34-18.27,139.69"/>
          <path d="m105.06,151.18l-2.64,17.42-2.59,17.42c-1.69,11.62-3.38,23.24-4.92,34.88-1.6,11.63-3.06,23.28-4.46,34.94-.66,5.83-1.37,11.66-1.93,17.5-.67,5.83-1.15,11.68-1.73,17.53.65-11.73,1.7-23.43,2.9-35.12,1.24-11.68,2.71-23.34,4.23-34.99,1.63-11.63,3.3-23.26,5.16-34.86,1.86-11.6,3.8-23.18,5.99-34.72Z"/>
        </g>
        <path class="cls-39" d="m19.6,115.23l1.77,5.89s-4.13,6.48-4.13,9.43v2.95s-1.18-3.54-.59-5.89,2.95-12.38,2.95-12.38Z"/>
        <path class="cls-36" d="m19.66,117.58s.53,0,.53,1.31-2.65,6.54-2.65,7.2,1.59-7.2,2.12-8.51Z"/>
        <path class="cls-39" d="m21.66,114.34s17.09-1.77,20.04-1.77c0,0-10.61,1.18-12.97,7.07-2.23,5.58-1.77,15.32-1.77,16.5,0,0-1.18-14.15-1.77-16.5v5.89l-1.77-3.54c-.59-1.18-1.18-1.18-1.18-1.18l-1.77-6.48h1.18Z"/>
        <path class="cls-36" d="m24.41,114.28s.15.43-.21.38c-2.31-.35-3.25.66-2.86.14.14-.18,2.64-.56,3.07-.52Z"/>
        <path class="cls-36" d="m101.82,129.08c.96-.59,2.02-.99,3.11-1.29,1.09-.31,2.22-.47,3.37-.47,1.14.02,2.32.15,3.39.65,1.07.48,1.99,1.29,2.51,2.29-.86-.74-1.78-1.25-2.78-1.56-1-.31-2.06-.38-3.12-.39-2.13-.01-4.27.38-6.48.76Z"/>
        <path class="cls-32" d="m32.12,114.56c-1.93,1.43-3.3,3.3-4.22,5.38-.43,1.05-.77,2.15-1,3.28-.13.56-.19,1.15-.3,1.72-.07.58-.12,1.17-.22,1.77-.12-.59-.21-1.18-.27-1.79,0-.6-.06-1.21.02-1.82.08-1.22.4-2.42.86-3.57.51-1.13,1.19-2.18,2.07-3.05.87-.87,1.91-1.59,3.07-1.93Z"/>
        <path class="cls-39" d="m16.07,142.93c-.02-.49.12-.94.33-1.36.2-.42.49-.8.84-1.13.69-.64,1.74-1.04,2.67-.74-.41.27-.76.47-1.08.72-.32.25-.63.48-.91.76-.59.53-1.13,1.13-1.84,1.76Z"/>
        <path class="cls-38" d="m95.93,50.69s-30.06,27.11-21.22,46.56c8.84,19.45-7.66,8.25-10.61,5.3s-5.89-5.89-4.72-18.86c1.18-12.97,1.77-15.32,11.79-21.22,10.02-5.89,12.38-7.07,17.68-9.43s7.07-2.36,7.07-2.36Z"/>
        <g>
          <path class="cls-34" d="m11.06,176.82s.88-1.57,3.54-2.36"/>
          <path class="cls-1" d="m11.06,176.82c.02-.42.21-.79.44-1.11.23-.32.53-.57.86-.79.66-.4,1.43-.63,2.24-.46-.29.31-.57.52-.86.73-.28.21-.57.39-.85.57-.57.36-1.12.68-1.83,1.05Z"/>
        </g>
        <path class="cls-29" d="m118.03,17.98c-.57-.78-.99-1.65-1.33-2.54-.34-.9-.56-1.85-.67-2.82-.1-.97-.08-1.98.24-2.94.29-.95.91-1.85,1.76-2.31-1.15,1.56-1.2,3.35-1,5.15.18,1.8.63,3.59,1,5.46Z"/>
        <path class="cls-39" d="m100.35,21.51c-2.45-2.12-4.47-4.73-5.97-7.64-.73-1.47-1.31-3.04-1.52-4.7-.21-1.64.05-3.42,1.01-4.75-.6,1.52-.55,3.12-.24,4.63.35,1.51.93,2.97,1.64,4.38.69,1.41,1.52,2.77,2.37,4.11.87,1.33,1.76,2.66,2.7,3.98Z"/>
        <path class="cls-39" d="m99.76,18.56c-.8-.6-1.48-1.34-2.09-2.13-.61-.79-1.14-1.65-1.57-2.57-.4-.92-.76-1.89-.86-2.92-.11-1.01-.03-2.08.4-2.99-.01,1.01.13,1.93.37,2.85.24.91.61,1.78,1,2.65.79,1.73,1.79,3.37,2.76,5.12Z"/>
        <path class="cls-39" d="m93.28,16.8c-1.56-1.77-2.96-3.6-4.45-5.35-.73-.89-1.5-1.73-2.29-2.55-.81-.8-1.63-1.59-2.69-2.12,1.2.14,2.27.81,3.2,1.54.94.74,1.78,1.58,2.54,2.49.75.91,1.45,1.86,2.07,2.86.62,1,1.18,2.03,1.62,3.14Z"/>
        <path class="cls-39" d="m153.98,38.6c.57-.88,1.12-1.77,1.57-2.7.48-.92.88-1.87,1.19-2.84.28-.98.48-1.96.5-2.94-.01-.98-.25-1.92-.7-2.75-.49-.77-1.23-1.57-1.91-2.36-.67-.81-1.36-1.59-1.99-2.44-.64-.84-1.27-1.7-1.76-2.65-.48-.94-.8-2.1-.43-3.11-.14,1.06.26,2.04.85,2.87.56.85,1.23,1.64,1.93,2.41l2.11,2.31c.7.79,1.41,1.5,2.06,2.49.54,1.01.8,2.15.78,3.27-.07,1.11-.31,2.19-.72,3.19-.82,1.99-2.01,3.78-3.48,5.28Z"/>
        <path class="cls-39" d="m155.75,38.01c.98-1.62,1.95-3.25,2.77-4.91.38-.83.79-1.7.86-2.51.05-.83-.06-1.79-.28-2.63-.43-1.73-1.48-3.27-2.7-4.65-.62-.69-1.27-1.41-1.85-2.16-.29-.39-.56-.78-.8-1.2-.24-.41-.44-.91-.35-1.39.02.48.28.88.57,1.24.29.36.62.7.95,1.02.66.67,1.36,1.28,2.05,1.95,1.38,1.33,2.59,2.98,3.1,4.94.24.99.35,1.93.26,2.98-.17,1.08-.64,1.93-1.11,2.77-.97,1.67-2.16,3.16-3.45,4.55Z"/>
        <path class="cls-39" d="m141.02,32.71c-1.09-3.5-1.83-7.08-2.38-10.7-.24-1.82-.49-3.62-.44-5.51,0-.46.12-1.03.25-1.42.13-.43.21-.86.34-1.32.14-.48.44-.89.72-1.24.29-.36.6-.7.91-1.03-.42.8-1.05,1.56-1.16,2.38-.06.43-.1.9-.18,1.36-.09.5-.14.83-.11,1.28.1,1.76.38,3.57.64,5.36.52,3.59,1.08,7.19,1.39,10.84Z"/>
        <path class="cls-39" d="m142.79,19.15c-.54-.52-.95-1.14-1.27-1.81-.32-.67-.54-1.42-.53-2.25.02-.41.17-.88.27-1.15.12-.32.21-.65.32-.98l.61-2.06c.19.72.22,1.47.15,2.2-.02.37-.1.73-.18,1.1-.11.4-.18.63-.18.93-.03.61.1,1.27.26,1.94l.53,2.07Z"/>
        <path class="cls-39" d="m133.35,33.89c.13-1.25.28-2.5.39-3.74.13-1.24.24-2.49.3-3.73.07-1.24.11-2.48.08-3.71-.04-1.22-.14-2.46-.48-3.57-.41-1.09-.99-2.21-1.69-3.17-.35-.49-.76-.94-1.18-1.42-.41-.48-.83-1.05-1.06-1.69-.12-.33-.22-.61-.24-1.04,0-.42.25-.83.56-1.04.61-.42,1.27-.53,1.91-.6,1.28-.11,2.54-.04,3.79.15-1.25.01-2.52.05-3.72.29-.59.14-1.21.29-1.61.63-.2.17-.28.36-.27.57.02.19.13.52.25.77.45,1.04,1.52,1.78,2.3,2.84.82,1.04,1.42,2.16,1.9,3.41.43,1.29.48,2.59.51,3.86,0,1.28-.09,2.55-.23,3.8-.32,2.51-.78,4.99-1.49,7.41Z"/>
        <path class="cls-39" d="m132.18,30.94l-.65-3.39-.61-3.39c-.23-1.12-.41-2.25-.66-3.37-.24-1.1-.48-2.26-.89-3.19-.99-2.09-2-4.26-2.09-6.72,0-.61.1-1.27.46-1.84.36-.57.95-.91,1.53-1.09,1.18-.32,2.37-.26,3.49,0-1.14-.04-2.32.02-3.33.46-.5.2-.93.53-1.16.96-.23.42-.27.96-.23,1.49.11,1.07.43,2.15.83,3.2.4,1.05.87,2.09,1.38,3.1.5,1.19.7,2.3.92,3.45.2,1.14.37,2.29.49,3.43.26,2.29.45,4.59.5,6.9Z"/>
        <path class="cls-39" d="m31.39,78.09c-1.48.41-2.4,1.71-3.14,2.95-.76,1.27-1.37,2.62-1.95,4-1.15,2.75-2.21,5.56-3.6,8.27-.17.34-.36.67-.55,1-.2.32-.37.66-.68,1.02-.6.65-1.33,1.01-2.05,1.32-1.46.58-2.95.91-4.45,1.12-1.5.21-3.01.32-4.52.35-.75,0-1.51-.02-2.26-.07-.38-.03-.75-.06-1.13-.11-.19-.03-.37-.07-.56-.11-.16-.06-.43-.08-.45-.28.04.19.3.17.46.21.18.02.37.03.56.04.37.01.74,0,1.12,0,.75-.03,1.49-.08,2.23-.16,1.48-.13,2.96-.33,4.41-.63,1.44-.31,2.9-.64,4.21-1.23.65-.28,1.28-.64,1.7-1.1.19-.2.36-.54.55-.86l.53-.97c1.37-2.61,2.46-5.42,3.8-8.12.67-1.35,1.37-2.7,2.24-3.95.45-.62.94-1.21,1.52-1.71.57-.51,1.28-.89,2.03-.98Z"/>
        <path class="cls-29" d="m41.41,74.56c-2.84,2.42-4.52,5.76-6.01,9.1-.76,1.68-1.45,3.4-2.37,5.04-.91,1.63-2.04,3.24-3.64,4.37-1.61,1.14-3.49,1.69-5.33,2.01-1.86.33-3.72.43-5.56.51-1.84.08-3.68.1-5.49.34-1.8.22-3.62.61-5.19,1.61,1.42-1.21,3.28-1.81,5.1-2.16,1.84-.34,3.69-.5,5.53-.65,1.84-.15,3.66-.3,5.44-.62,1.76-.34,3.53-.83,4.95-1.83,1.43-1.01,2.53-2.45,3.44-4.02.91-1.57,1.7-3.23,2.52-4.89.83-1.65,1.67-3.32,2.76-4.84,1.07-1.52,2.35-2.91,3.86-3.98Z"/>
        <path class="cls-39" d="m179.92,53.93c.12-1.04.48-2.07,1.06-2.98.56-.91,1.43-1.75,2.56-2.11,1.12-.33,2.29-.22,3.31.2,1.02.41,1.89,1.09,2.51,1.94-.89-.54-1.81-.97-2.75-1.2-.93-.23-1.91-.26-2.76.01-.85.25-1.6.87-2.23,1.61-.64.75-1.17,1.61-1.68,2.52Z"/>
        <path class="cls-39" d="m169.9,42.73c1.26-1,2.42-2.1,3.37-3.31.94-1.21,1.59-2.66,1.2-4-.21-.62-.65-1.33-1.04-2.02l-1.18-2.08c-.79-1.38-1.59-2.88-1.76-4.5.56,1.52,1.52,2.76,2.43,4.09.46.65.9,1.33,1.33,2.01.42.69.85,1.33,1.19,2.22.24.9.14,1.84-.17,2.66-.32.82-.84,1.51-1.39,2.12-1.13,1.22-2.51,2.13-3.97,2.81Z"/>
        <path class="cls-39" d="m162.82,39.78c1.01-1.23,1.89-2.53,2.61-3.89.71-1.36,1.25-2.8,1.32-4.28.08-.74-.05-1.46-.22-2.17-.2-.74-.46-1.49-.71-2.22-.26-.73-.53-1.46-.87-2.17-.15-.36-.34-.74-.39-1.16-.06-.41-.02-.81.03-1.21.06.39.11.79.23,1.15.11.36.34.66.57.99.44.66.83,1.38,1.16,2.11.34.73.62,1.47.89,2.23.24.81.38,1.66.32,2.51-.1,1.69-.75,3.27-1.65,4.62-.88,1.36-2,2.54-3.28,3.49Z"/>
        <path class="cls-39" d="m157.52,16.21c.43-1.13,1.07-2.16,1.8-3.13.73-.96,1.57-1.86,2.53-2.62.97-.74,2.05-1.39,3.23-1.76,1.19-.36,2.46-.43,3.63-.15-1.21.14-2.31.42-3.36.88-1.03.49-1.99,1.11-2.89,1.82-.92.69-1.74,1.51-2.56,2.34-.81.84-1.6,1.71-2.39,2.63Z"/>
        <path class="cls-39" d="m161.65,16.21c.32-1,.95-1.88,1.65-2.65.71-.78,1.55-1.43,2.44-2,.91-.53,1.86-.99,2.86-1.29.99-.32,2.03-.5,3.07-.54l-2.78,1.27c-.9.43-1.78.9-2.63,1.41-1.68,1.05-3.25,2.25-4.61,3.8Z"/>
        <path class="cls-39" d="m151.04,12.08c.97-1.51,2.16-2.88,3.54-4.06,1.38-1.17,2.96-2.18,4.77-2.72.91-.22,1.86-.37,2.82-.25l.71.1.66.15c.44.1.87.21,1.3.33.87.23,1.72.5,2.57.81.42.16.83.34,1.24.52.41.18.8.36,1.25.41-.45.06-.91-.04-1.34-.16-.43-.11-.86-.21-1.3-.3-.86-.19-1.73-.36-2.6-.52-.86-.12-1.78-.38-2.58-.39-.82-.08-1.65.06-2.46.27-1.62.47-3.13,1.36-4.56,2.37-1.41,1.04-2.75,2.19-4.02,3.45Z"/>
        <path class="cls-39" d="m184.63,23.28c.95-.49,1.97-.82,3.02-1.04,1.05-.22,2.13-.3,3.22-.24,1.08.07,2.21.33,3.17.95.97.6,1.64,1.62,1.79,2.68-.56-.93-1.29-1.6-2.17-2-.88-.4-1.86-.59-2.86-.64-2-.14-4.06.09-6.17.28Z"/>
        <path class="cls-39" d="m183.45,25.05c1.48-.77,3.11-1.16,4.76-1.32.83-.06,1.67-.06,2.51.09.42.06.84.18,1.24.35.38.18.82.45.93.88-.3-.29-.68-.36-1.07-.41-.38-.04-.77-.05-1.16-.05-.78.02-1.57.06-2.36.13-1.59.12-3.17.32-4.84.32Z"/>
        <path class="cls-39" d="m195.24,76.33c1.24-.25,2.47-.5,3.69-.82,1.22-.29,2.43-.62,3.61-1.01,2.35-.79,4.72-1.71,6.54-3.26.88-.78,1.57-1.76,1.69-2.88.06-.56.02-1.1-.14-1.71-.14-.61-.28-1.21-.45-1.81-.33-1.19-.75-2.37-1.33-3.46-.56-1.08-1.28-2.18-2.43-2.72.63.14,1.16.55,1.62.98.46.45.87.95,1.22,1.49.69,1.09,1.2,2.27,1.64,3.48.22.6.41,1.21.56,1.83.18.6.29,1.33.23,2.02-.13,1.43-.99,2.65-1.98,3.53-2.06,1.72-4.53,2.61-6.99,3.25-2.47.63-4.99,1.01-7.51,1.1Z"/>
        <path class="cls-39" d="m197.01,83.4l4.88-.5c1.62-.19,3.22-.38,4.81-.68,1.58-.29,3.15-.66,4.59-1.3.71-.33,1.39-.72,1.92-1.28.55-.54.87-1.3.9-2.13.2.81-.02,1.72-.51,2.44-.5.72-1.21,1.26-1.95,1.67-1.49.84-3.13,1.27-4.76,1.59-3.27.57-6.6.64-9.87.2Z"/>
        <path class="cls-39" d="m199.96,99.9c1.07-.2,2.12-.42,3.16-.7,1.04-.26,2.07-.56,3.07-.92,2-.72,3.97-1.56,5.71-2.73,1.76-1.13,3.3-2.6,4.42-4.37,1.12-1.77,1.69-3.86,1.92-6.01.08,1.08.06,2.18-.15,3.27-.23,1.07-.57,2.15-1.1,3.13-.51.99-1.2,1.89-1.96,2.71-.78.8-1.66,1.5-2.58,2.11-1.86,1.22-3.92,2.06-6.03,2.63-2.11.56-4.28.91-6.45.89Z"/>
        <path class="cls-29" d="m199.96,95.19c1.89.18,3.77.16,5.61-.02,1.84-.21,3.65-.63,5.27-1.42,1.64-.76,3.03-1.97,4.07-3.46,1.02-1.51,1.69-3.27,2.14-5.11-.06,1.89-.49,3.83-1.48,5.53-.98,1.7-2.51,3.1-4.3,3.95-1.78.85-3.73,1.24-5.66,1.3-1.93.06-3.85-.19-5.66-.76Z"/>
        <path class="cls-39" d="m198.78,109.33c1.83,2.43,3.4,5.07,4.68,7.86,1.28,2.78,2.28,5.77,2.3,8.95.03.39-.06.79-.09,1.19-.05.4-.08.8-.22,1.18-.12.38-.23.79-.37,1.15l-.48,1.05c-.68,1.38-1.44,2.73-2.32,3.99-.86,1.27-1.8,2.48-2.71,3.69-.46.6-.93,1.19-1.32,1.84-.37.64-.74,1.33-.64,2.1-.22-.75.08-1.55.41-2.23.33-.7.75-1.34,1.15-1.99.84-1.27,1.7-2.52,2.47-3.82.76-1.3,1.5-2.61,2.11-3.98.69-1.37,1-2.71,1.02-4.18,0-2.93-.92-5.85-2.01-8.64-.54-1.41-1.17-2.78-1.85-4.13-.65-1.37-1.38-2.7-2.12-4.03Z"/>
        <path class="cls-39" d="m200.55,98.72c2.67-1.69,5.36-3.27,7.94-5,1.3-.85,2.55-1.77,3.74-2.74,1.17-.99,2.33-2.04,3.05-3.45-.36,1.57-1.4,2.91-2.52,4.03-1.13,1.13-2.4,2.12-3.71,3-2.65,1.74-5.48,3.19-8.5,4.17Z"/>
        <path class="cls-39" d="m197.01,82.81c.96.85,2,1.58,3.11,2.16,1.1.6,2.29,1.03,3.5,1.21,2.44.44,4.81-.48,7.03-1.63,2.22-1.15,4.31-2.58,6.17-4.25.93-.84,1.78-1.77,2.4-2.84.31-.53.56-1.1.63-1.71.07-.6-.07-1.24-.44-1.77.45.45.71,1.11.71,1.78,0,.67-.19,1.32-.46,1.92-.58,1.19-1.4,2.22-2.3,3.16-1.81,1.88-3.95,3.38-6.25,4.59-1.16.58-2.35,1.12-3.65,1.44-1.3.33-2.69.37-3.98.06-2.6-.58-4.84-2.15-6.47-4.12Z"/>
        <path class="cls-39" d="m196.42,81.04c1.28-.03,2.55-.08,3.81-.22,1.26-.11,2.52-.28,3.75-.53,2.43-.53,4.91-1.28,6.69-2.89.9-.78,1.51-1.83,1.8-2.97.3-1.22.53-2.46.72-3.7.17-1.24.25-2.5.16-3.75-.08-1.24-.3-2.52-1.02-3.58.91.93,1.26,2.27,1.51,3.52.2,1.29.2,2.59.12,3.88-.08,1.29-.31,2.57-.56,3.83-.3,1.33-1.03,2.59-2.05,3.49-2.06,1.82-4.7,2.54-7.24,2.91-2.56.34-5.15.35-7.68,0Z"/>
        <path class="cls-39" d="m183.45,62.18c-.03-1.33.26-2.7.95-3.92.36-.6.82-1.17,1.41-1.6.59-.42,1.29-.73,2.01-.82,1.51-.18,2.72.21,3.97.06.61-.06,1.22-.2,1.75-.5.53-.29.95-.81,1.11-1.46.07.68-.3,1.37-.82,1.85-.55.47-1.24.74-1.92.88-.69.13-1.38.17-2.07.13-.35-.02-.68-.04-.97-.04h-.45s-.44.06-.44.06c-1.19.13-2.18.87-2.93,1.86-.71,1.02-1.25,2.22-1.6,3.5Z"/>
        <path class="cls-39" d="m182.27,55.11c.47-.61,1.03-1.12,1.61-1.59.58-.48,1.21-.89,1.87-1.27.67-.36,1.36-.68,2.14-.86.38-.09.79-.14,1.22-.07.21.03.43.13.6.28.17.16.22.38.22.57-.21-.35-.52-.42-.84-.35-.32.05-.64.19-.96.32-.63.29-1.27.64-1.9.99-1.28.69-2.54,1.43-3.97,1.98Z"/>
        <path class="cls-39" d="m186.4,63.36c.68-.96,1.59-1.64,2.57-2.21.5-.27,1.02-.51,1.58-.66.55-.15,1.17-.26,1.75-.07-.54.23-.97.52-1.44.79-.46.29-.93.55-1.4.82-.96.52-1.92,1.03-3.05,1.34Z"/>
        <path class="cls-29" d="m186.4,80.45c1.05.81,2.02,1.74,2.92,2.73.87,1.01,1.67,2.1,2.39,3.23,1.42,2.28,2.47,4.78,3.26,7.34.78,2.56,1.32,5.18,1.78,7.79.23,1.3.46,2.6.79,3.87.33,1.24.68,2.61,1.82,3.34-.63-.24-1.11-.79-1.45-1.36-.36-.58-.6-1.21-.84-1.84-.43-1.27-.75-2.57-1.07-3.85-.63-2.58-1.19-5.15-1.98-7.65-.75-2.51-1.74-4.94-2.97-7.25-1.25-2.3-2.82-4.42-4.65-6.34Z"/>
        <path class="cls-39" d="m189.35,81.63c.97,1.1,1.8,2.32,2.56,3.59.74,1.28,1.34,2.63,1.89,4,1.09,2.75,1.76,5.64,2.27,8.54.49,2.9.8,5.82,1.06,8.73.13,1.45.28,2.9.53,4.33.12.71.25,1.43.5,2.1.25.66.58,1.34,1.22,1.73-.7-.28-1.15-.96-1.46-1.62-.33-.67-.54-1.39-.73-2.1-.35-1.44-.58-2.89-.81-4.34-.44-2.9-.78-5.79-1.28-8.65-.49-2.86-1.11-5.7-2.01-8.45-.89-2.75-2.12-5.4-3.73-7.85Z"/>
        <path class="cls-39" d="m194.06,125.83c.48,1.06.89,2.15,1.33,3.23l1.17,3.29c.76,2.2,1.4,4.44,1.94,6.72.24,1.15.49,2.29.62,3.47.12,1.19.14,2.4-.13,3.6-.13.61-.46,1.21-.76,1.67-.3.47-.47.98-.59,1.53-.24,1.11-.27,2.27-.34,3.44-.15-1.16-.23-2.32-.14-3.51.07-.59.23-1.21.52-1.75.28-.53.49-.98.56-1.53.31-2.2-.21-4.45-.71-6.7-.51-2.25-1.13-4.48-1.7-6.72-.59-2.24-1.21-4.48-1.77-6.74Z"/>
        <path class="cls-39" d="m39.64,69.25c-1.23-.08-2.36.41-3.39.99-1.05.56-2.05,1.23-3.04,1.93-1.96,1.4-3.91,2.85-5.95,4.2-2.05,1.31-4.19,2.62-6.64,3.22-1.22.29-2.54.37-3.76-.04-1.21-.42-2.19-1.32-2.79-2.37.79.92,1.78,1.67,2.93,1.9,1.12.27,2.31.12,3.42-.23,2.23-.73,4.29-2.01,6.3-3.32,2.02-1.31,3.98-2.74,6.07-4.01,1.05-.63,2.11-1.24,3.25-1.73,1.13-.45,2.39-.86,3.6-.55Z"/>
        <path class="cls-29" d="m41.41,60.41c-.85.14-1.62.53-2.37.92-.75.4-1.47.86-2.18,1.33-1.43.93-2.82,1.93-4.17,2.96-2.71,2.07-5.39,4.2-8.01,6.39-1.31,1.1-2.62,2.2-3.89,3.33-.64.57-1.28,1.13-1.89,1.71-.32.3-.58.57-.89.9-.31.33-.67.63-1.08.88-.41.24-.89.42-1.4.43-.51.02-1.01-.13-1.41-.38-.81-.5-1.37-1.23-1.84-1.96-.93-1.5-1.42-3.16-2.1-4.72.49.71.8,1.52,1.21,2.27.4.76.83,1.49,1.32,2.17.48.68,1.05,1.31,1.73,1.67.68.38,1.43.27,2.06-.16.31-.22.61-.48.88-.78.27-.3.59-.65.89-.95.62-.61,1.24-1.21,1.88-1.79,1.28-1.15,2.57-2.28,3.9-3.38,2.65-2.18,5.36-4.3,8.21-6.24,1.42-.97,2.87-1.91,4.37-2.76.76-.42,1.52-.82,2.32-1.16.79-.34,1.62-.65,2.48-.69Z"/>
        <path d="m105.36,147.35c.36-.18-42.44,21.22-87.23,5.89,0,0,48.92,12.97,87.23-5.89Z"/>
        <path d="m105.95,147.94c6.29,3.74,12.69,7.28,19.21,10.56,3.26,1.64,6.56,3.2,9.88,4.7,3.32,1.51,6.67,2.94,10.06,4.24,6.78,2.57,13.76,4.79,20.87,5.65,3.54.41,7.12.47,10.47-.29,3.34-.75,6.32-2.54,8.13-5.3l2.78-4.22-.25,5.05c-.36,7.33-1.34,14.48-2.64,21.62-1.31,7.13-2.97,14.2-5.08,21.14-4.23,13.86-10.05,27.35-18.12,39.48-8.01,12.13-18.49,22.75-30.88,30.37-3.11,1.87-6.29,3.64-9.61,5.12-3.32,1.45-6.69,2.81-10.15,3.87-6.89,2.21-14.03,3.54-21.2,4.2,3.56-.56,7.1-1.18,10.58-2.06,3.49-.82,6.93-1.86,10.3-3.08,6.74-2.43,13.16-5.65,19.16-9.5,5.97-3.89,11.49-8.47,16.4-13.62,2.47-2.56,4.8-5.26,6.97-8.07,2.19-2.8,4.27-5.69,6.2-8.68,7.7-11.99,13.38-25.22,17.49-38.88,2.04-6.84,3.75-13.79,5.06-20.81,1.3-7.01,2.29-14.15,2.75-21.19l2.53.83c-1.14,1.66-2.65,3.09-4.36,4.14-1.71,1.06-3.59,1.75-5.5,2.17-3.82.81-7.66.66-11.36.12-7.42-1.1-14.43-3.56-21.23-6.35-6.8-2.81-13.38-6.09-19.77-9.68-6.4-3.58-12.67-7.37-18.71-11.51Z"/>
        <path class="cls-39" d="m47.89,18.56c4.47.13,8.92,1.08,13.13,2.66,2.12.78,4.13,1.84,6.03,3.06.47.32.95.61,1.4.96l1.34,1.05c.88.7,1.7,1.43,2.59,2.09,1.73,1.38,3.54,2.65,5.47,3.7.97.52,1.96.99,2.98,1.4l3.12,1.17c4.27,1.55,7.98,4.3,11.09,7.49-1.69-1.46-3.48-2.8-5.37-3.95-1.88-1.18-3.86-2.15-5.97-2.82-2.11-.66-4.27-1.43-6.27-2.49-2-1.06-3.88-2.34-5.65-3.72-1.79-1.4-3.36-2.96-5.21-4.13-1.83-1.22-3.79-2.23-5.82-3.11-2.04-.86-4.15-1.56-6.3-2.11-2.14-.58-4.34-.99-6.55-1.26Z"/>
        <path class="cls-39" d="m62.04,20.92c3.24.9,6.4,2.09,9.49,3.46,1.55.68,3.06,1.44,4.54,2.27,1.46.82,2.94,1.8,4.16,3.02,2.47,2.45,4.08,5.52,5.61,8.48.4.73.78,1.48,1.24,2.15.46.67.96,1.32,1.67,1.63,1.54.73,3.01,1.72,3.95,3.14-1.11-1.26-2.59-2.13-4.13-2.68-.88-.33-1.48-1.05-2-1.72-.53-.69-.95-1.42-1.39-2.14-1.7-2.9-3.29-5.86-5.64-8.15-1.15-1.17-2.49-2.07-3.93-2.92-1.42-.86-2.91-1.63-4.39-2.4-1.49-.76-3.01-1.47-4.54-2.15-1.52-.71-3.07-1.35-4.62-2Z"/>
        <path class="cls-39" d="m50.84,20.33c2.56.38,5.04,1.15,7.45,2.13,2.41.97,4.7,2.26,6.77,3.87l.77.62.72.67c.49.43.93.93,1.37,1.42.86,1,1.64,2.01,2.38,3.08.74,1.06,1.43,2.19,2.01,3.33.46,1.18,1.67,1.8,2.7,2.55-.58-.28-1.17-.55-1.72-.9-.57-.32-1.07-.85-1.41-1.41-.67-1.1-1.4-2.13-2.2-3.12-1.61-2-3.22-3.95-5.23-5.46-1.98-1.56-4.18-2.85-6.47-3.96-1.14-.57-2.32-1.06-3.51-1.53-1.18-.49-2.4-.9-3.62-1.3Z"/>
        <path class="cls-39" d="m34.93,27.41c1.31-1.64,3.15-2.84,5.13-3.62,2-.74,4.2-.94,6.32-.71,1.06.11,2.13.34,3.13.63,1.02.27,2.03.61,3.03,1.01.99.41,1.96.96,2.82,1.6.86.64,1.66,1.27,2.52,1.84,3.4,2.33,7.31,3.87,11.12,5.59l5.73,2.56,2.85,1.32c.95.44,1.9.92,2.73,1.56-.89-.55-1.87-.93-2.84-1.32l-2.94-1.11-5.84-2.31c-3.86-1.58-7.81-3.13-11.38-5.47-.88-.59-1.71-1.28-2.53-1.9-.81-.62-1.67-1.13-2.61-1.53-1.88-.77-3.91-1.37-5.9-1.72-4.02-.66-8.38.58-11.35,3.57Z"/>
        <path class="cls-39" d="m22.55,39.19c1.24-2.24,2.86-4.32,4.98-5.9,1.05-.79,2.3-1.4,3.66-1.61,1.39-.21,2.77.16,3.98.66,2.44,1.06,4.49,2.68,6.48,4.29.99.81,1.97,1.63,2.98,2.4,1,.78,2.03,1.54,3.26,1.93-1.29-.17-2.43-.88-3.54-1.53-1.09-.69-2.12-1.45-3.17-2.19-1.05-.73-2.07-1.49-3.13-2.17-1.05-.69-2.13-1.35-3.27-1.81-1.13-.48-2.31-.79-3.47-.65-1.17.12-2.3.65-3.35,1.3-1.05.66-2.01,1.49-2.89,2.39-.91.89-1.73,1.86-2.52,2.87Z"/>
        <path class="cls-39" d="m13.12,45.68c.87,1.51,1.68,3.04,2.37,4.64l.25.62c.04.1.08.22.11.34.04.14.07.34.03.49-.1.52-.21.88-.32,1.31-.22.83-.43,1.66-.61,2.49-.38,1.66-.66,3.34-.81,5.03-.13,1.69-.15,3.4.15,5.12-.68-1.61-.94-3.39-.93-5.15,0-1.76.24-3.51.62-5.22.2-.85.43-1.7.67-2.53.12-.4.27-.86.36-1.19.02-.06.02-.08,0-.15l-.08-.28-.19-.6c-.55-1.62-1.13-3.26-1.65-4.92Z"/>
        <path class="cls-29" d="m164,27.41c-.08-1.31-.49-2.55-1.15-3.59-.66-1.04-1.59-1.86-2.67-2.48-.58-.39-1.2-.79-1.6-1.45-.41-.63-.6-1.45-.45-2.17.28-1.46,1.29-2.49,2.33-3.28-.77,1.05-1.46,2.22-1.55,3.38-.1,1.16.72,2.06,1.78,2.66,1.18.69,2.25,1.71,2.85,2.97.62,1.24.77,2.68.47,3.97Z"/>
        <path class="cls-39" d="m152.8,20.33c-.32-.2-.53-.5-.65-.84-.13-.34-.15-.74-.03-1.13.12-.39.42-.75.78-.9.35-.18.73-.19,1.08-.07-.25.29-.47.49-.61.7-.15.2-.25.38-.3.58-.14.41-.16.94-.27,1.66Z"/>
        <path class="cls-39" d="m173.43,30.94c.71-.79,1.27-1.85.98-2.8-.25-.94-1.16-1.57-2.07-2.02-1.93-.92-3.96-2.07-5.25-4.07-.3-.5-.55-1.1-.55-1.77-.01-.65.24-1.35.7-1.8.43-.46.98-.77,1.47-1,.49-.23.98-.46,1.48-.67,1-.42,2.03-.85,3.14-1.03.56-.08,1.14-.08,1.69.09.55.16,1.01.5,1.36.92-.42-.34-.91-.58-1.42-.66-.51-.08-1.03,0-1.53.13-1,.26-1.96.75-2.91,1.25-.91.55-2.02.93-2.58,1.61-.6.66-.54,1.6,0,2.42.5.84,1.27,1.56,2.09,2.19.82.66,1.73,1.15,2.67,1.72.48.29.95.62,1.35,1.05.42.4.72.96.83,1.54.09.6-.08,1.19-.36,1.68-.28.49-.66.9-1.1,1.22Z"/>
        <path d="m18.42,154.13c-4.14,18.27-16.74,101.6,67.19,140.28,0,0-84.58-35.07-67.19-140.28Z"/>
        <path class="cls-28" d="m6.05,158.84c-.1-1.71.26-3.4.93-4.99.35-.79.81-1.55,1.43-2.19.6-.63,1.47-1.15,2.35-1.08-.79.35-1.31.94-1.75,1.58-.43.65-.81,1.35-1.12,2.09-.66,1.47-1.18,3.02-1.85,4.58Z"/>
        <g>
          <path d="m185.81,140.57s2.36,2.95,1.77,7.07"/>
          <path class="cls-29" d="m185.81,140.57c.46.44.81.97,1.11,1.53.31.56.53,1.16.69,1.78.32,1.23.33,2.56-.03,3.77-.03-.63-.03-1.24-.12-1.85-.07-.61-.18-1.2-.33-1.79-.29-1.18-.74-2.31-1.32-3.43Z"/>
        </g>
        <path class="cls-39" d="m37.15,159.13s.99,1.16.97,1.73-10.65-4.89-10.47-9.96-.79-6.79-.75-7.92,1.94,3.45,2.37,5.72,3.88,6.91,4.37,7.49,3.03,1.8,3.5,2.95Z"/>
        <path class="cls-32" d="m33.88,157.36c-.82-.38-1.56-.93-2.22-1.53-.67-.6-1.26-1.3-1.79-2.04-1.02-1.49-1.74-3.31-1.62-5.13.36.84.69,1.63,1.1,2.38.42.75.84,1.48,1.34,2.18.97,1.42,2.06,2.73,3.19,4.14Z"/>
        <g>
          <path d="m197.01,139.98v5.89s-1.77,0-2.36.59"/>
          <path class="cls-29" d="m197.01,139.98c.13.98.2,1.96.23,2.95.02.98.03,1.96-.02,2.95v.22s-.21,0-.21,0c-.39-.01-.81-.01-1.2.04-.4.05-.81.1-1.15.34.27-.33.7-.49,1.1-.6.41-.1.83-.17,1.26-.2l-.21.21c-.04-.98-.04-1.96-.02-2.95.03-.98.1-1.96.23-2.95Z"/>
        </g>
        <g>
          <path class="cls-8" d="m63.7,135.96s-8.75,0-16.83,4.67c0,0,7.4-12.68,24.23-6.67,0,0,8.75,4.67,8.75,6.01s-16.16-4-16.16-4Z"/>
          <g>
            <path class="cls-25" d="m83.01,143.2l-.24.28c-13.2-13.33-27-3.9-30.3-1.28-.3-.18-.58-.37-.81-.54-.69-.5-1.09-.9-1.09-.9,1.17-1.45,3.35-2.56,5.59-3.38,3.58-1.31,7.31-1.89,7.31-1.89.45-.02.89-.03,1.32-.04,3.3-.05,6.02.26,8.26.79,7.06,1.67,9.33,5.5,9.95,6.95Z"/>
            <path class="cls-35" d="m83.22,143.75h-.03s.02.02.04.03c0,0,0-.01,0-.03Z"/>
          </g>
          <path class="cls-41" d="m82.77,143.48c-13.2-13.33-27-3.9-30.3-1.28.41.25.87.51,1.38.74,13.79-7.9,24.03-2.16,27.38.27.76.14,1.42.32,1.97.55h.03c-.02-.08-.08-.27-.2-.56l-.24.28Z"/>
          <path class="cls-15" d="m61.92,139.65c-2.52.62-5.22,1.66-8.07,3.3,1.04.47,2.25.83,3.56.83.98,0,2.81-.15,5.08-.33-.42-.86-.66-1.81-.66-2.83,0-.33.03-.65.08-.97Z"/>
          <path class="cls-26" d="m72.44,140.62c0,.81-.24,1.56-.64,2.19,0,0-.01.02-.02.03-.86.04-1.72.08-2.57.12.11-.19.2-.31.2-.31,0,0,.08-2.03-.51-3.21-.08-.17-.13-.34-.15-.5-.11-.9.57-1.75.71-2.28.75.22,1.41.65,1.92,1.21.38.42.67.93.85,1.47.13.4.2.83.2,1.27Z"/>
          <path class="cls-16" d="m81.22,143.21c-1.25-.91-3.46-2.27-6.45-3.22.02.21.03.42.03.63,0,.76-.14,1.48-.38,2.16,2.56-.02,4.96.09,6.8.43Z"/>
          <path class="cls-37" d="m65.12,143.22s0,.01.01.02c0,0,.01,0,.02,0-.01,0-.02,0-.03-.01Z"/>
          <path class="cls-14" d="m74.8,140.62c0,.76-.14,1.49-.38,2.16-.53,0-1.07.01-1.61.02-.12,0-.25,0-.38.01-.21,0-.41.02-.62.02,0-.01,0-.02,0-.03.4-.64.64-1.39.64-2.19,0-.44-.07-.87-.2-1.27-.18-.55-.48-1.05-.85-1.47-.51-.57-1.17-1-1.92-1.21-.37-.11-.75-.17-1.15-.17-.78,0-1.51.22-2.13.6-.19.12-.38.25-.55.4-.52.44-.93,1.01-1.17,1.66-.17.45-.27.94-.27,1.46,0,.98.35,1.89.93,2.6,0,0,0,0,0,0,0,0,0,0,.01.01-.41.04-.82.06-1.21.09l-.32-.94.31.94c-.49.04-.97.08-1.42.12-.42-.86-.66-1.82-.66-2.83,0-.33.04-.65.08-.97.47-3.12,3.15-5.52,6.4-5.52s6.14,2.58,6.45,5.86c.02.21.03.41.03.62Z"/>
          <path class="cls-37" d="m68.91,139.44c.59,1.18.51,3.21.51,3.21,0,0-.09.12-.2.31-1.05.06-2.08.13-3.08.2-.31.02-.61.04-.91.06-.02,0-.05,0-.08,0-.01,0-.02-.01-.04-.02-.58-.71-.93-1.61-.93-2.6,0-.52.1-1.01.27-1.46.33-.87.94-1.59,1.72-2.06.62-.38,1.35-.6,2.13-.6.4,0,.78.06,1.15.17-.14.53-.82,1.38-.71,2.28.02.17.06.34.15.5Z"/>
          <circle class="cls-14" cx="68.32" cy="140.62" r="2.31"/>
          <path class="cls-30" d="m69.61,136.31l.79.09c-.34-.13-.63-.17-.79-.09Z"/>
          <path class="cls-30" d="m71.81,142.84s0-.02,0-.03c0,.01-.01.02-.02.03,0,0,.02,0,.02,0Z"/>
          <path class="cls-37" d="m66.18,137.09c-.78.47-1.39,1.2-1.72,2.06.87-.12,1.71-.19,2.52-.22-.07-.71-.3-1.37-.81-1.84Z"/>
          <path class="cls-30" d="m64.07,139.22c-.42.07-.85.14-1.28.23-.01.87.18,1.79.81,2.59v-2.01l.46-.81Z"/>
          <path class="cls-30" d="m65.63,137.49c-.52.45-.92,1.01-1.17,1.66h0c.25-.65.65-1.22,1.17-1.66Z"/>
          <path class="cls-30" d="m65.12,143.22c-.58-.71-.93-1.62-.93-2.6,0-.52.1-1.01.27-1.46-.13.02-.27.04-.4.06l-.46.81v2.01c.35.45.85.85,1.52,1.18Z"/>
          <path class="cls-19" d="m66.06,143.16c-.3.02-.6.04-.89.06-.02,0-.05,0-.07,0-.01,0-.02-.01-.03-.02-.65-.32-1.13-.71-1.48-1.15-.62-.78-.81-1.67-.79-2.53.03-1.62.79-3.04.79-3.04.79-.02,1.4.1,1.88.32.25.12.46.26.64.43.49.47.73,1.11.79,1.8.14,1.54-.51,3.35-.83,4.13Z"/>
          <path class="cls-8" d="m157.94,153.32c2.02,2,6.06,2.67,6.06,2.67l-2.02-2,3.37.67c-2.69-1.33-6.06-4.67-6.06-4.67-13.46-14.02-30.97-2.67-30.97-2.67l29.62,6.01Z"/>
          <path class="cls-30" d="m126.3,145.31c1.98-2.18,4.37-3.98,6.94-5.47,2.58-1.47,5.4-2.61,8.37-3.2,2.96-.59,6.06-.67,9.05-.07,3,.55,5.83,1.78,8.37,3.38l.08.05.03.03c1.53,1.39,3.03,2.8,4.52,4.23,1.48,1.44,2.96,2.88,4.38,4.39-1.72-1.16-3.38-2.39-5.04-3.62-1.65-1.24-3.29-2.5-4.9-3.78l.11.08c-2.5-1.34-5.15-2.34-7.9-2.83-2.75-.47-5.58-.49-8.36,0-2.78.44-5.5,1.34-8.12,2.5-2.62,1.18-5.14,2.61-7.52,4.32Z"/>
          <path class="cls-30" d="m165.35,151.98c-.54-.28-.98-.73-1.38-1.18-.4-.46-.77-.94-1.13-1.44-.7-1-1.19-2.15-1.94-2.98-.77-.86-1.65-1.64-2.62-2.32-.94-.71-1.95-1.32-2.98-1.91-2.06-1.17-4.24-2.13-6.48-2.94-1.11-.42-2.26-.74-3.42-1.02-.57-.17-1.17-.26-1.75-.39-.59-.11-1.19-.17-1.78-.27,2.42-.12,4.85.29,7.19.95,2.35.65,4.6,1.62,6.74,2.8,2.09,1.24,4.17,2.62,5.7,4.62.79,1.03,1.16,2.18,1.76,3.2.57,1.04,1.18,2.09,2.09,2.87Z"/>
          <path class="cls-30" d="m83.89,137.97c-2.38-2.62-5.24-4.63-8.33-6.07-3.09-1.43-6.42-2.23-9.8-2.44l-2.55-.07c-.85,0-1.7.14-2.55.19l-1.28.09c-.43.04-.84.15-1.27.22-.84.16-1.69.31-2.54.45-.86.13-1.67.45-2.51.64l-2.53.66c-1.65.58-3.3,1.16-5,1.67,1.51-.91,3.08-1.74,4.65-2.59,1.65-.65,3.29-1.38,5.01-1.9.87-.23,1.74-.45,2.61-.66.44-.1.87-.23,1.32-.3l1.35-.17c.9-.09,1.8-.23,2.7-.26l2.73.03c3.63.27,7.24,1.24,10.4,3.06,3.15,1.79,5.9,4.33,7.61,7.45Z"/>
          <circle class="cls-21" cx="64.19" cy="138.26" r=".59"/>
          <circle class="cls-20" cx="65.08" cy="139.73" r=".29"/>
          <path class="cls-41" d="m128.94,147.54c.28.11.67.24,1.14.41,3.83-1.34,14.11-3.66,24.04,5.03.8.08,1.62.16,2.44.23-4.09-4.6-13.77-12.57-27.63-5.66Z"/>
          <path class="cls-24" d="m156.57,153.21c.46.04.91.08,1.38.11,0,0-4.39-6.14-12.04-8.44-2.69-.81-5.79-1.14-9.25-.57-2.59.43-5.37,1.37-8.33,3,0,0,.21.09.61.24,13.86-6.91,23.54,1.07,27.63,5.66Z"/>
          <path class="cls-17" d="m137.42,146.92c.03-.1.07-.19.11-.28-3.25.06-5.88.77-7.45,1.31,1.36.47,3.48,1.15,6.29,1.87.28.07.56.14.85.22-.19-1.03-.12-2.09.2-3.12Z"/>
          <path class="cls-18" d="m149.07,152.35c1.61.23,3.29.44,5.05.62-1.38-1.21-2.77-2.19-4.14-3.01-.05.29-.11.59-.21.88-.17.54-.41,1.05-.7,1.51Z"/>
          <path class="cls-37" d="m147.72,148.78c.01.45-.05.91-.19,1.36-.23.72-.64,1.33-1.16,1.8-.51-.08-1-.17-1.49-.26-.18-.03-.37-.06-.55-.09-.77-.14-1.52-.29-2.24-.43-.06-.37-.17-.66-.17-.66,0,0,.54-1.96,1.46-2.91.08-.08.14-.17.2-.26.54-.85.08-1.97.11-2.56.38,0,.77.06,1.15.18.73.24,1.36.66,1.86,1.22.21.25.41.52.56.82.29.56.44,1.17.45,1.79Z"/>
          <path class="cls-26" d="m143.59,147.32c-.06.09-.12.18-.2.26-.92.94-1.46,2.91-1.46,2.91,0,0,.1.29.17.66-.77-.16-1.5-.32-2.21-.48-.12-.24-.21-.5-.28-.75-.09-.34-.14-.69-.14-1.04,0-.42.06-.83.19-1.24.11-.33.25-.62.42-.9.36-.58.84-1.05,1.41-1.39.63-.38,1.35-.59,2.1-.59.03,0,.06,0,.09,0-.02.59.43,1.71-.11,2.56Z"/>
          <path class="cls-30" d="m142.9,144.23l.78.15c-.12-.13-.41-.18-.78-.15Z"/>
          <path class="cls-14" d="m149.98,149.97c-.05.29-.11.59-.21.88-.17.54-.41,1.04-.7,1.5-.55-.08-1.07-.16-1.6-.24-.17-.03-.34-.05-.51-.08-.2-.04-.4-.06-.6-.1.52-.47.93-1.08,1.16-1.8.14-.45.2-.9.19-1.36-.01-.62-.17-1.23-.45-1.79-.15-.3-.35-.57-.56-.82-.5-.56-1.13-.98-1.86-1.22-.38-.12-.77-.18-1.15-.18-.03,0-.06,0-.09,0-.75,0-1.47.21-2.1.59-.57.34-1.05.8-1.41,1.39-.17.28-.32.57-.42.9-.24.75-.25,1.54-.06,2.28.06.26.16.51.28.75-.18-.04-.35-.08-.52-.12-.2-.05-.39-.09-.59-.14-.54-.13-1.06-.25-1.56-.38-.19-1.03-.12-2.1.21-3.12.03-.1.07-.19.11-.29,1.19-3.22,4.73-4.98,8.03-3.93,1.65.52,3,1.66,3.8,3.2.65,1.27.87,2.68.62,4.07Z"/>
          <path class="cls-13" d="m149.19,149.52c-.25.81-.72,1.59-1.53,2.14-.21.14-.44.27-.7.37-.2-.04-.4-.06-.6-.1-.51-.08-1-.17-1.49-.26-.05-.93-.06-2.56.43-3.85.28-.72.71-1.33,1.39-1.66.22-.11.47-.18.75-.21.53-.07,1.17,0,1.93.27,0,0,.32,1.69-.19,3.29Z"/>
          <circle class="cls-14" cx="143.6" cy="148.88" r="2.31"/>
          <circle class="cls-22" cx="148.24" cy="147.89" r=".59"/>
          <circle class="cls-32" cx="146.95" cy="149.02" r=".29"/>
        </g>
        <path class="cls-30" d="m62.79,128.37c-2.98,1.35-6,2.27-8.81,3.45-.7.29-1.38.61-2.01.96-.31.17-.63.35-.88.56-.25.17-.61.5-.93.73-.66.51-1.38.96-2.15,1.3-.77.32-1.62.6-2.46.47.76-.31,1.36-.79,1.94-1.3.58-.5,1.11-1.06,1.62-1.62.27-.3.45-.56.82-.89.33-.34.68-.6,1.04-.86.36-.26.74-.45,1.1-.67.38-.18.76-.37,1.14-.53,1.54-.64,3.12-1.05,4.72-1.33,1.6-.27,3.22-.41,4.87-.28Z"/>
      </g>
    </g>
  </g>
</svg>