<svg width="2753" height="2492" viewBox="0 0 2753 2492" fill="none" xmlns="http://www.w3.org/2000/svg">
<ellipse cx="733" cy="626" rx="733" ry="626" transform="matrix(1 0 0 -1 623 1938)" fill="url(#paint0_radial_247_2)"/>
<ellipse cx="576.5" cy="487.5" rx="576.5" ry="487.5" transform="matrix(1 0 0 -1 820 1690)" fill="url(#paint1_radial_247_2)"/>
<ellipse cx="677.947" cy="574.646" rx="677.947" ry="574.646" transform="matrix(1 0 0 -1 868.105 2022)" fill="url(#paint2_radial_247_2)"/>
<ellipse cx="677.947" cy="574.646" rx="677.947" ry="574.646" transform="matrix(1 0 0 -1 395 2426.29)" fill="url(#paint3_radial_247_2)"/>
<ellipse cx="677.947" cy="574.646" rx="677.947" ry="574.646" transform="matrix(1 0 0 -1 1397 1626.29)" fill="url(#paint4_radial_247_2)"/>
<ellipse cx="677.947" cy="574.646" rx="677.947" ry="574.646" transform="matrix(1 0 0 -1 842 1234.29)" fill="url(#paint5_radial_247_2)"/>
<ellipse cx="677.947" cy="574.646" rx="677.947" ry="574.646" transform="matrix(1 0 0 -1 0 1577.29)" fill="url(#paint6_radial_247_2)"/>
<ellipse cx="677.947" cy="574.646" rx="677.947" ry="574.646" transform="matrix(1 0 0 -1 41 1149.29)" fill="url(#paint7_radial_247_2)"/>
<ellipse cx="677.947" cy="574.646" rx="677.947" ry="574.646" transform="matrix(1 0 0 -1 1356 2491.29)" fill="url(#paint8_radial_247_2)"/>
<defs>
<radialGradient id="paint0_radial_247_2" cx="0" cy="0" r="1" gradientUnits="userSpaceOnUse" gradientTransform="translate(733 626) rotate(90.1828) scale(626.003 733.002)">
<stop stop-color="#00C2FF" stop-opacity="0.32"/>
<stop offset="1" stop-color="#D9D9D9" stop-opacity="0"/>
</radialGradient>
<radialGradient id="paint1_radial_247_2" cx="0" cy="0" r="1" gradientUnits="userSpaceOnUse" gradientTransform="translate(576.5 487.5) rotate(101.779) scale(497.987 581.909)">
<stop stop-color="#1400FF" stop-opacity="0.31"/>
<stop offset="1" stop-color="white" stop-opacity="0"/>
</radialGradient>
<radialGradient id="paint2_radial_247_2" cx="0" cy="0" r="1" gradientUnits="userSpaceOnUse" gradientTransform="translate(677.947 574.646) rotate(90.1505) scale(574.648 677.948)">
<stop stop-color="#FC5BFF" stop-opacity="0.45"/>
<stop offset="1" stop-color="#D9D9D9" stop-opacity="0"/>
</radialGradient>
<radialGradient id="paint3_radial_247_2" cx="0" cy="0" r="1" gradientUnits="userSpaceOnUse" gradientTransform="translate(697 565.293) rotate(92.0166) scale(584.362 689.408)">
<stop stop-color="white" stop-opacity="0.45"/>
<stop offset="0.0001" stop-color="#E6E6E6" stop-opacity="0.148594"/>
<stop offset="0.0002" stop-color="#00FF38" stop-opacity="0.0978341"/>
<stop offset="1" stop-color="#5EFF81" stop-opacity="0"/>
</radialGradient>
<radialGradient id="paint4_radial_247_2" cx="0" cy="0" r="1" gradientUnits="userSpaceOnUse" gradientTransform="translate(677.947 574.646) rotate(90.1505) scale(574.648 677.948)">
<stop stop-color="white" stop-opacity="0.45"/>
<stop offset="0.0001" stop-color="#E6E6E6" stop-opacity="0.148594"/>
<stop offset="1" stop-color="#D9D9D9" stop-opacity="0"/>
</radialGradient>
<radialGradient id="paint5_radial_247_2" cx="0" cy="0" r="1" gradientUnits="userSpaceOnUse" gradientTransform="translate(677.947 574.646) rotate(90.1505) scale(574.648 677.948)">
<stop stop-color="white" stop-opacity="0.45"/>
<stop offset="0.0001" stop-color="#E6E6E6" stop-opacity="0.148594"/>
<stop offset="1" stop-color="#D9D9D9" stop-opacity="0"/>
</radialGradient>
<radialGradient id="paint6_radial_247_2" cx="0" cy="0" r="1" gradientUnits="userSpaceOnUse" gradientTransform="translate(677.947 574.646) rotate(90.1505) scale(574.648 677.948)">
<stop offset="0.0001" stop-color="#E6E6E6" stop-opacity="0.148594"/>
<stop offset="0.0002" stop-color="#74FFA3" stop-opacity="0.45"/>
<stop offset="1" stop-color="#D9D9D9" stop-opacity="0"/>
</radialGradient>
<radialGradient id="paint7_radial_247_2" cx="0" cy="0" r="1" gradientUnits="userSpaceOnUse" gradientTransform="translate(677.947 574.646) rotate(90.1505) scale(574.648 677.948)">
<stop stop-color="white" stop-opacity="0.45"/>
<stop offset="0.0001" stop-color="#E6E6E6" stop-opacity="0.148594"/>
<stop offset="1" stop-color="#D9D9D9" stop-opacity="0"/>
</radialGradient>
<radialGradient id="paint8_radial_247_2" cx="0" cy="0" r="1" gradientUnits="userSpaceOnUse" gradientTransform="translate(677.947 574.646) rotate(90.1505) scale(574.648 677.948)">
<stop offset="0.0001" stop-color="#E6E6E6" stop-opacity="0.148594"/>
<stop offset="0.0002" stop-color="#FF7E7E" stop-opacity="0.45"/>
<stop offset="1" stop-color="#D9D9D9" stop-opacity="0"/>
</radialGradient>
</defs>
</svg>
