<svg id="visual" viewBox="0 0 1440 1080" width="1440" height="1080" xmlns="http://www.w3.org/2000/svg" xmlns:xlink="http://www.w3.org/1999/xlink" version="1.1"><rect x="0" y="0" width="1440" height="1080" fill="#001220"></rect><defs><linearGradient id="grad1_0" x1="25%" y1="0%" x2="100%" y2="100%"><stop offset="23.333333333333336%" stop-color="#001220" stop-opacity="1"></stop><stop offset="76.66666666666666%" stop-color="#001220" stop-opacity="1"></stop></linearGradient></defs><defs><linearGradient id="grad2_0" x1="0%" y1="0%" x2="75%" y2="100%"><stop offset="23.333333333333336%" stop-color="#001220" stop-opacity="1"></stop><stop offset="76.66666666666666%" stop-color="#001220" stop-opacity="1"></stop></linearGradient></defs><g transform="translate(1440, 0)"><path d="M0 450C-35.8 412 -71.6 373.9 -119 366.2C-166.3 358.4 -225.2 380.9 -264.5 364.1C-303.8 347.3 -323.5 291.2 -336.6 244.5C-349.6 197.9 -356 160.6 -373.8 121.4C-391.6 82.3 -420.8 41.1 -450 0L0 0Z" fill="#FBAE3C"></path></g><g transform="translate(0, 1080)"><path d="M0 -450C47.8 -447 95.6 -444 139.1 -428C182.5 -411.9 221.5 -382.8 254.5 -350.3C287.5 -317.8 314.4 -282 337.4 -245.1C360.3 -208.2 379.4 -170.2 397.5 -129.2C415.7 -88.1 432.8 -44.1 450 0L0 0Z" fill="#FBAE3C"></path></g></svg>