<svg id="visual" viewBox="0 0 1440 1080" width="1440" height="1080" xmlns="http://www.w3.org/2000/svg" xmlns:xlink="http://www.w3.org/1999/xlink" version="1.1"><rect x="0" y="0" width="1440" height="1080" fill="#d1e9ff"></rect><defs><linearGradient id="grad1_0" x1="25%" y1="0%" x2="100%" y2="100%"><stop offset="23.333333333333336%" stop-color="#d1e9ff" stop-opacity="1"></stop><stop offset="76.66666666666666%" stop-color="#d1e9ff" stop-opacity="1"></stop></linearGradient></defs><defs><linearGradient id="grad2_0" x1="0%" y1="0%" x2="75%" y2="100%"><stop offset="23.333333333333336%" stop-color="#d1e9ff" stop-opacity="1"></stop><stop offset="76.66666666666666%" stop-color="#d1e9ff" stop-opacity="1"></stop></linearGradient></defs><g transform="translate(1440, 0)"><path d="M0 450C-43 429.9 -86 409.8 -128.2 394.7C-170.5 379.6 -211.9 369.4 -254.5 350.3C-297.1 331.2 -341 303.3 -364.1 264.5C-387.2 225.7 -389.5 176 -400.4 130.1C-411.3 84.2 -430.6 42.1 -450 0L0 0Z" fill="#3c67fa"></path></g><g transform="translate(0, 1080)"><path d="M0 -450C46.1 -445.4 92.3 -440.9 139.1 -428C185.8 -415.1 233.2 -393.8 259.2 -356.8C285.2 -319.7 289.7 -266.9 316.3 -229.8C342.9 -192.7 391.6 -171.3 417.5 -135.7C443.5 -100 446.7 -50 450 0L0 0Z" fill="#3c67fa"></path></g></svg>