<svg id="visual" viewBox="0 0 1440 1080" width="1440" height="1080" xmlns="http://www.w3.org/2000/svg" xmlns:xlink="http://www.w3.org/1999/xlink" version="1.1"><path d="M0 1051L24 1046.7C48 1042.3 96 1033.7 144 1025.3C192 1017 240 1009 288 1009.7C336 1010.3 384 1019.7 432 1023.8C480 1028 528 1027 576 1024.2C624 1021.3 672 1016.7 720 1017.5C768 1018.3 816 1024.7 864 1027.5C912 1030.3 960 1029.7 1008 1025.5C1056 1021.3 1104 1013.7 1152 1014.3C1200 1015 1248 1024 1296 1030.8C1344 1037.7 1392 1042.3 1416 1044.7L1440 1047L1440 1081L1416 1081C1392 1081 1344 1081 1296 1081C1248 1081 1200 1081 1152 1081C1104 1081 1056 1081 1008 1081C960 1081 912 1081 864 1081C816 1081 768 1081 720 1081C672 1081 624 1081 576 1081C528 1081 480 1081 432 1081C384 1081 336 1081 288 1081C240 1081 192 1081 144 1081C96 1081 48 1081 24 1081L0 1081Z" fill="#d1e9ff" stroke-linecap="round" stroke-linejoin="miter"></path></svg>