<svg id="visual" viewBox="0 0 1440 1080" width="1440" height="1080" xmlns="http://www.w3.org/2000/svg" xmlns:xlink="http://www.w3.org/1999/xlink" version="1.1"><path d="M0 27L24 31.3C48 35.7 96 44.3 144 52.7C192 61 240 69 288 68.3C336 67.7 384 58.3 432 54.2C480 50 528 51 576 53.8C624 56.7 672 61.3 720 60.5C768 59.7 816 53.3 864 50.5C912 47.7 960 48.3 1008 52.5C1056 56.7 1104 64.3 1152 63.7C1200 63 1248 54 1296 47.2C1344 40.3 1392 35.7 1416 33.3L1440 31L1440 0L1416 0C1392 0 1344 0 1296 0C1248 0 1200 0 1152 0C1104 0 1056 0 1008 0C960 0 912 0 864 0C816 0 768 0 720 0C672 0 624 0 576 0C528 0 480 0 432 0C384 0 336 0 288 0C240 0 192 0 144 0C96 0 48 0 24 0L0 0Z" fill="#d1e9ff" stroke-linecap="round" stroke-linejoin="miter"></path></svg>